NotoSansMono-Light.ufo
<glyph name="asciitilde" format="2">
  <advance width="600"/>
  <unicode hex="007E"/>
  <outline>
    <contour>
      <point x="71" y="308" type="line"/>
      <point x="109" y="348"/>
      <point x="149" y="373"/>
      <point x="192" y="373" type="curve" smooth="yes"/>
      <point x="235" y="373"/>
      <point x="261" y="360"/>
      <point x="297" y="342" type="curve" smooth="yes"/>
      <point x="337" y="322"/>
      <point x="367" y="309"/>
      <point x="415" y="309" type="curve" smooth="yes"/>
      <point x="463" y="309"/>
      <point x="504" y="336"/>
      <point x="529" y="363" type="curve"/>
      <point x="529" y="393" type="line"/>
      <point x="489" y="351"/>
      <point x="451" y="333"/>
      <point x="415" y="333" type="curve" smooth="yes"/>
      <point x="374" y="333"/>
      <point x="346" y="346"/>
      <point x="310" y="364" type="curve" smooth="yes"/>
      <point x="272" y="383"/>
      <point x="244" y="397"/>
      <point x="192" y="397" type="curve" smooth="yes"/>
      <point x="144" y="397"/>
      <point x="101" y="369"/>
      <point x="71" y="340" type="curve"/>
    </contour>
  </outline>
</glyph>
<glyph name="Oslash" format="2">
  <advance width="600"/>
  <unicode hex="00D8"/>
  <anchor x="300" y="0" name="bottom"/>
  <anchor x="300" y="714" name="top"/>
  <anchor x="300" y="357" name="center"/>
  <anchor x="302" y="10" name="ogonek"/>
  <anchor x="20" y="714" name="topleft"/>
  <anchor x="600" y="714" name="topright"/>
  <outline>
    <contour>
      <point x="91" y="-28" type="line"/>
      <point x="520" y="724" type="line"/>
      <point x="499" y="737" type="line"/>
      <point x="69" y="-15" type="line"/>
    </contour>
    <component base="O"/>
  </outline>
</glyph>
<glyph name="oslash" format="2">
  <advance width="600"/>
  <unicode hex="00F8"/>
  <anchor x="300" y="0" name="bottom"/>
  <anchor x="300" y="528" name="top"/>
  <anchor x="300" y="264" name="center"/>
  <anchor x="300" y="10" name="ogonek"/>
  <anchor x="580" y="528" name="topright"/>
  <outline>
    <contour>
      <point x="87" y="-27" type="line"/>
      <point x="543" y="539" type="line"/>
      <point x="524" y="555" type="line"/>
      <point x="68" y="-11" type="line"/>
    </contour>
    <component base="o"/>
  </outline>
</glyph>
<glyph name="Lslash" format="2">
  <advance width="600"/>
  <unicode hex="0141"/>
  <anchor x="377" y="0" name="bottom"/>
  <anchor x="202" y="714" name="top"/>
  <anchor x="340" y="357" name="center"/>
  <anchor x="463" y="714" name="topright"/>
  <outline>
    <contour>
      <point x="105" y="243" type="line"/>
      <point x="395" y="430" type="line"/>
      <point x="380" y="451" type="line"/>
      <point x="90" y="264" type="line"/>
    </contour>
    <component base="L" xOffset="40"/>
  </outline>
</glyph>
<glyph name="lslash" format="2">
  <advance width="600"/>
  <unicode hex="0142"/>
  <anchor x="300" y="0" name="bottom"/>
  <anchor x="300" y="760" name="top"/>
  <anchor x="314" y="379" name="center"/>
  <anchor x="486" y="760" name="topright"/>
  <outline>
    <contour>
      <point x="179" y="263" type="line"/>
      <point x="469" y="450" type="line"/>
      <point x="454" y="471" type="line"/>
      <point x="164" y="284" type="line"/>
    </contour>
    <component base="l"/>
  </outline>
</glyph>
<glyph name="napostrophe" format="2">
  <advance width="600"/>
  <unicode hex="0149"/>
  <anchor x="315" y="0" name="bottom"/>
  <anchor x="310" y="528" name="top"/>
  <outline>
    <contour>
      <point x="126" y="0" type="line"/>
      <point x="152" y="0" type="line"/>
      <point x="152" y="302" type="line" smooth="yes"/>
      <point x="152" y="446"/>
      <point x="224" y="512"/>
      <point x="330" y="512" type="curve" smooth="yes"/>
      <point x="420" y="512"/>
      <point x="474" y="462"/>
      <point x="474" y="345" type="curve" smooth="yes"/>
      <point x="474" y="0" type="line"/>
      <point x="500" y="0" type="line"/>
      <point x="500" y="354" type="line" smooth="yes"/>
      <point x="500" y="477"/>
      <point x="436" y="537"/>
      <point x="331" y="537" type="curve" smooth="yes"/>
      <point x="226" y="537"/>
      <point x="176" y="478"/>
      <point x="153" y="417" type="curve"/>
      <point x="151" y="417" type="line"/>
      <point x="148" y="528" type="line"/>
      <point x="126" y="528" type="line"/>
    </contour>
    <component base="quoteright" xOffset="-250"/>
  </outline>
</glyph>
<glyph name="tbar" format="2">
  <advance width="600"/>
  <unicode hex="0167"/>
  <anchor x="319" y="0" name="bottom"/>
  <anchor x="272" y="659" name="top"/>
  <anchor x="267" y="264" name="center"/>
  <anchor x="580" y="659" name="topright"/>
  <outline>
    <contour>
      <point x="84" y="285" type="line"/>
      <point x="498" y="285" type="line"/>
      <point x="498" y="310" type="line"/>
      <point x="84" y="310" type="line"/>
    </contour>
    <component base="t"/>
  </outline>
</glyph>
<glyph name="Uogonek" format="2">
  <advance width="600"/>
  <unicode hex="0172"/>
  <anchor x="300" y="-217" name="bottom"/>
  <anchor x="300" y="714" name="top"/>
  <anchor x="540" y="10" name="ogonek"/>
  <anchor x="580" y="714" name="topright"/>
  <outline>
    <contour>
      <point x="329" y="-217" type="curve" smooth="yes"/>
      <point x="349" y="-217"/>
      <point x="367" y="-213"/>
      <point x="378" y="-209" type="curve"/>
      <point x="378" y="-185" type="line"/>
      <point x="367" y="-189"/>
      <point x="348" y="-192"/>
      <point x="333" y="-192" type="curve" smooth="yes"/>
      <point x="291" y="-192"/>
      <point x="272" y="-170"/>
      <point x="272" y="-135" type="curve" smooth="yes"/>
      <point x="272" y="-62"/>
      <point x="352" y="-25"/>
      <point x="406" y="17" type="curve"/>
      <point x="388" y="28" type="line"/>
      <point x="317" y="-25"/>
      <point x="246" y="-56"/>
      <point x="246" y="-137" type="curve" smooth="yes"/>
      <point x="246" y="-194"/>
      <point x="282" y="-217"/>
    </contour>
    <component base="U"/>
  </outline>
</glyph>
<glyph name="uni018B" format="2">
  <advance width="600"/>
  <unicode hex="018B"/>
  <anchor x="300" y="0" name="bottom"/>
  <anchor x="300" y="714" name="top"/>
  <anchor x="0" y="0" name="topright"/>
  <outline>
    <contour>
      <point x="112" y="690" type="line"/>
      <point x="470" y="690" type="line"/>
      <point x="470" y="714" type="line"/>
      <point x="112" y="714" type="line"/>
    </contour>
    <component base="P" xScale="-1" yScale="-1" xOffset="600" yOffset="714"/>
  </outline>
</glyph>
<glyph name="uni0191" format="2">
  <advance width="600"/>
  <unicode hex="0191"/>
  <anchor x="160" y="0" name="bottom"/>
  <anchor x="408" y="714" name="top"/>
  <anchor x="601" y="714" name="topright"/>
  <outline>
    <contour>
      <point x="158" y="-15" type="curve" smooth="yes"/>
      <point x="249" y="-15"/>
      <point x="286" y="48"/>
      <point x="286" y="146" type="curve" smooth="yes"/>
      <point x="286" y="362" type="line"/>
      <point x="556" y="362" type="line"/>
      <point x="556" y="387" type="line"/>
      <point x="286" y="387" type="line"/>
      <point x="286" y="689" type="line"/>
      <point x="575" y="689" type="line"/>
      <point x="575" y="714" type="line"/>
      <point x="260" y="714" type="line"/>
      <point x="260" y="146" type="line" smooth="yes"/>
      <point x="260" y="58"/>
      <point x="227" y="9"/>
      <point x="155" y="9" type="curve" smooth="yes"/>
      <point x="89" y="9"/>
      <point x="51" y="50"/>
      <point x="51" y="116" type="curve" smooth="yes"/>
      <point x="51" y="144"/>
      <point x="56" y="161"/>
      <point x="59" y="171" type="curve"/>
      <point x="33" y="178" type="line"/>
      <point x="28" y="161"/>
      <point x="24" y="141"/>
      <point x="24" y="116" type="curve" smooth="yes"/>
      <point x="24" y="36"/>
      <point x="74" y="-15"/>
    </contour>
  </outline>
</glyph>
<glyph name="florin" format="2">
  <advance width="600"/>
  <unicode hex="0192"/>
  <anchor x="199" y="0" name="bottom"/>
  <anchor x="420" y="765" name="top"/>
  <anchor x="601" y="765" name="topright"/>
  <outline>
    <contour>
      <point x="194" y="-15" type="curve" smooth="yes"/>
      <point x="282" y="-15"/>
      <point x="319" y="47"/>
      <point x="319" y="146" type="curve" smooth="yes"/>
      <point x="319" y="503" type="line"/>
      <point x="528" y="503" type="line"/>
      <point x="528" y="528" type="line"/>
      <point x="319" y="528" type="line"/>
      <point x="319" y="592" type="line" smooth="yes"/>
      <point x="319" y="703"/>
      <point x="363" y="740"/>
      <point x="455" y="740" type="curve" smooth="yes"/>
      <point x="490" y="740"/>
      <point x="531" y="735"/>
      <point x="556" y="728" type="curve"/>
      <point x="560" y="752" type="line"/>
      <point x="537" y="759"/>
      <point x="487" y="765"/>
      <point x="455" y="765" type="curve" smooth="yes"/>
      <point x="342" y="765"/>
      <point x="293" y="707"/>
      <point x="293" y="603" type="curve" smooth="yes"/>
      <point x="293" y="528" type="line"/>
      <point x="124" y="524" type="line"/>
      <point x="124" y="503" type="line"/>
      <point x="293" y="503" type="line"/>
      <point x="293" y="149" type="line" smooth="yes"/>
      <point x="293" y="56"/>
      <point x="260" y="9"/>
      <point x="191" y="9" type="curve" smooth="yes"/>
      <point x="131" y="9"/>
      <point x="98" y="46"/>
      <point x="98" y="105" type="curve" smooth="yes"/>
      <point x="98" y="129"/>
      <point x="103" y="144"/>
      <point x="106" y="152" type="curve"/>
      <point x="82" y="159" type="line"/>
      <point x="76" y="145"/>
      <point x="71" y="127"/>
      <point x="71" y="105" type="curve" smooth="yes"/>
      <point x="71" y="32"/>
      <point x="116" y="-15"/>
    </contour>
  </outline>
</glyph>
<glyph name="uni019A" format="2">
  <advance width="600"/>
  <unicode hex="019A"/>
  <anchor x="300" y="0" name="bottom"/>
  <anchor x="300" y="760" name="top"/>
  <anchor x="314" y="379" name="center"/>
  <anchor x="486" y="760" name="topright"/>
  <outline>
    <contour>
      <point x="147" y="368" type="line"/>
      <point x="480" y="368" type="line"/>
      <point x="480" y="393" type="line"/>
      <point x="147" y="393" type="line"/>
    </contour>
    <component base="l"/>
  </outline>
</glyph>
<glyph name="uni019B" format="2">
  <advance width="600"/>
  <unicode hex="019B"/>
  <anchor x="250" y="0" name="bottom"/>
  <anchor x="256" y="766" name="top"/>
  <outline>
    <contour>
      <point x="137" y="581" type="line"/>
      <point x="403" y="657" type="line"/>
      <point x="396" y="681" type="line"/>
      <point x="130" y="605" type="line"/>
    </contour>
    <component base="lambda"/>
  </outline>
</glyph>
<glyph name="uni019D" format="2">
  <advance width="600"/>
  <unicode hex="019D"/>
  <anchor x="305" y="-144" name="bottom"/>
  <anchor x="305" y="714" name="top"/>
  <anchor x="600" y="714" name="topright"/>
  <outline>
    <contour>
      <point x="38" y="-144" type="curve" smooth="yes"/>
      <point x="85" y="-144"/>
      <point x="121" y="-106"/>
      <point x="121" y="-34" type="curve" smooth="yes"/>
      <point x="121" y="68" type="line"/>
      <point x="95" y="68" type="line"/>
      <point x="95" y="-30" type="line" smooth="yes"/>
      <point x="95" y="-86"/>
      <point x="76" y="-119"/>
      <point x="37" y="-119" type="curve" smooth="yes"/>
      <point x="21" y="-119"/>
      <point x="2" y="-116"/>
      <point x="-13" y="-110" type="curve"/>
      <point x="-13" y="-136" type="line"/>
      <point x="0" y="-141"/>
      <point x="15" y="-144"/>
    </contour>
    <component base="N"/>
  </outline>
</glyph>
<glyph name="uni01AB" format="2">
  <advance width="600"/>
  <unicode hex="01AB"/>
  <anchor x="386" y="-240" name="bottom"/>
  <anchor x="300" y="659" name="top"/>
  <anchor x="267" y="264" name="center"/>
  <anchor x="580" y="659" name="topright"/>
  <outline>
    <contour>
      <point x="386" y="-240" type="curve" smooth="yes"/>
      <point x="448" y="-240"/>
      <point x="490" y="-200"/>
      <point x="490" y="-131" type="curve" smooth="yes"/>
      <point x="490" y="18" type="line"/>
      <point x="465" y="6" type="line"/>
      <point x="465" y="-128" type="line" smooth="yes"/>
      <point x="465" y="-188"/>
      <point x="435" y="-216"/>
      <point x="388" y="-216" type="curve" smooth="yes"/>
      <point x="364" y="-216"/>
      <point x="344" y="-211"/>
      <point x="328" y="-203" type="curve"/>
      <point x="328" y="-229" type="line"/>
      <point x="341" y="-235"/>
      <point x="358" y="-240"/>
    </contour>
    <component base="t"/>
  </outline>
</glyph>
<glyph name="uni01B5" format="2">
  <advance width="600"/>
  <unicode hex="01B5"/>
  <anchor x="312" y="0" name="bottom"/>
  <anchor x="312" y="714" name="top"/>
  <anchor x="580" y="714" name="topright"/>
  <outline>
    <contour>
      <point x="126" y="343" type="line"/>
      <point x="484" y="343" type="line"/>
      <point x="484" y="368" type="line"/>
      <point x="126" y="368" type="line"/>
    </contour>
    <component base="Z"/>
  </outline>
</glyph>
<glyph name="uni01B6" format="2">
  <advance width="600"/>
  <unicode hex="01B6"/>
  <anchor x="308" y="0" name="bottom"/>
  <anchor x="308" y="528" name="top"/>
  <anchor x="580" y="528" name="topright"/>
  <outline>
    <contour>
      <point x="126" y="258" type="line"/>
      <point x="480" y="258" type="line"/>
      <point x="480" y="283" type="line"/>
      <point x="126" y="283" type="line"/>
    </contour>
    <component base="z"/>
  </outline>
</glyph>
<glyph name="uni01C2" format="2">
  <advance width="600"/>
  <unicode hex="01C2"/>
  <anchor x="300" y="0" name="bottom"/>
  <anchor x="300" y="760" name="top"/>
  <outline>
    <contour>
      <point x="110" y="477" type="line"/>
      <point x="490" y="477" type="line"/>
      <point x="490" y="502" type="line"/>
      <point x="110" y="502" type="line"/>
    </contour>
    <contour>
      <point x="110" y="265" type="line"/>
      <point x="490" y="265" type="line"/>
      <point x="490" y="290" type="line"/>
      <point x="110" y="290" type="line"/>
    </contour>
    <component base="uni01C0"/>
  </outline>
</glyph>
<glyph name="uni023C" format="2">
  <advance width="600"/>
  <unicode hex="023C"/>
  <anchor x="300" y="-213" name="bottom"/>
  <anchor x="320" y="760" name="top"/>
  <anchor x="580" y="528" name="topright"/>
  <outline>
    <contour>
      <point x="153" y="-213" type="line"/>
      <point x="179" y="-213" type="line"/>
      <point x="505" y="760" type="line"/>
      <point x="479" y="760" type="line"/>
    </contour>
    <component base="c"/>
  </outline>
</glyph>
<glyph name="uni023E" format="2">
  <advance width="600"/>
  <unicode hex="023E"/>
  <anchor x="300" y="-75" name="bottom"/>
  <anchor x="300" y="760" name="top"/>
  <anchor x="301" y="357" name="center"/>
  <anchor x="581" y="714" name="topright"/>
  <outline>
    <contour>
      <point x="63" y="-75" type="line"/>
      <point x="91" y="-75" type="line"/>
      <point x="539" y="760" type="line"/>
      <point x="511" y="760" type="line"/>
    </contour>
    <component base="T" xOffset="1"/>
  </outline>
</glyph>
<glyph name="uni0243" format="2">
  <advance width="600"/>
  <unicode hex="0243"/>
  <anchor x="300" y="0" name="bottom"/>
  <anchor x="300" y="714" name="top"/>
  <anchor x="580" y="714" name="topright"/>
  <outline>
    <contour>
      <point x="0" y="186" type="line"/>
      <point x="286" y="186" type="line"/>
      <point x="286" y="211" type="line"/>
      <point x="0" y="211" type="line"/>
    </contour>
    <component base="B"/>
  </outline>
</glyph>
<glyph name="uni0249" format="2">
  <advance width="600"/>
  <unicode hex="0249"/>
  <anchor x="300" y="-248" name="bottom"/>
  <anchor x="340" y="734" name="top"/>
  <anchor x="520" y="734" name="topright"/>
  <outline>
    <contour>
      <point x="195" y="251" type="line"/>
      <point x="491" y="251" type="line"/>
      <point x="491" y="276" type="line"/>
      <point x="195" y="276" type="line"/>
    </contour>
    <component base="j"/>
  </outline>
</glyph>
<glyph name="uni024F" format="2">
  <advance width="600"/>
  <unicode hex="024F"/>
  <anchor x="300" y="-247" name="bottom"/>
  <anchor x="300" y="528" name="top"/>
  <anchor x="580" y="528" name="topright"/>
  <outline>
    <contour>
      <point x="30" y="325" type="line"/>
      <point x="581" y="325" type="line"/>
      <point x="581" y="350" type="line"/>
      <point x="30" y="350" type="line"/>
    </contour>
    <component base="y"/>
  </outline>
</glyph>
<glyph name="eopenreversedhook" format="2">
  <advance width="600"/>
  <unicode hex="025D"/>
  <anchor x="197" y="0" name="bottom"/>
  <anchor x="205" y="528" name="top"/>
  <outline>
    <contour>
      <point x="513" y="310" type="curve" smooth="yes"/>
      <point x="550" y="310"/>
      <point x="570" y="328"/>
      <point x="584" y="345" type="curve"/>
      <point x="569" y="362" type="line"/>
      <point x="555" y="347"/>
      <point x="541" y="335"/>
      <point x="514" y="335" type="curve" smooth="yes"/>
      <point x="476" y="335"/>
      <point x="458" y="360"/>
      <point x="455" y="444" type="curve" smooth="yes"/>
      <point x="454" y="472" type="line"/>
      <point x="381" y="451" type="line"/>
      <point x="382" y="425" type="line"/>
      <point x="427" y="438" type="line"/>
      <point x="430" y="346"/>
      <point x="456" y="310"/>
    </contour>
    <component base="afii10073" xOffset="-91"/>
  </outline>
</glyph>
<glyph name="uni025F" format="2">
  <advance width="600"/>
  <unicode hex="025F"/>
  <anchor x="318" y="-240" name="bottom"/>
  <anchor x="327" y="528" name="top"/>
  <anchor x="460" y="528" name="topright"/>
  <outline>
    <contour>
      <point x="234" y="-240" type="curve" smooth="yes"/>
      <point x="291" y="-240"/>
      <point x="339" y="-201"/>
      <point x="339" y="-120" type="curve" smooth="yes"/>
      <point x="339" y="251" type="line"/>
      <point x="426" y="251" type="line"/>
      <point x="426" y="276" type="line"/>
      <point x="339" y="276" type="line"/>
      <point x="339" y="528" type="line"/>
      <point x="313" y="528" type="line"/>
      <point x="313" y="276" type="line"/>
      <point x="230" y="276" type="line"/>
      <point x="230" y="251" type="line"/>
      <point x="313" y="251" type="line"/>
      <point x="313" y="-116" type="line" smooth="yes"/>
      <point x="313" y="-178"/>
      <point x="287" y="-215"/>
      <point x="234" y="-215" type="curve" smooth="yes"/>
      <point x="214" y="-215"/>
      <point x="193" y="-213"/>
      <point x="173" y="-204" type="curve"/>
      <point x="173" y="-230" type="line"/>
      <point x="189" y="-236"/>
      <point x="209" y="-240"/>
    </contour>
  </outline>
</glyph>
<glyph name="uni0282" format="2">
  <advance width="600"/>
  <unicode hex="0282"/>
  <anchor x="310" y="-291" name="bottom"/>
  <anchor x="300" y="528" name="top"/>
  <anchor x="580" y="528" name="topright"/>
  <outline>
    <contour>
      <point x="224" y="-240" type="curve" smooth="yes"/>
      <point x="251" y="-240"/>
      <point x="269" y="-235"/>
      <point x="283" y="-230" type="curve"/>
      <point x="283" y="-205" type="line"/>
      <point x="268" y="-211"/>
      <point x="248" y="-215"/>
      <point x="226" y="-215" type="curve" smooth="yes"/>
      <point x="173" y="-215"/>
      <point x="146" y="-185"/>
      <point x="146" y="-116" type="curve" smooth="yes"/>
      <point x="146" y="23" type="line"/>
      <point x="120" y="44" type="line"/>
      <point x="120" y="-125" type="line" smooth="yes"/>
      <point x="120" y="-199"/>
      <point x="156" y="-240"/>
    </contour>
    <component base="s"/>
  </outline>
</glyph>
<glyph name="uni0284" format="2">
  <advance width="600"/>
  <unicode hex="0284"/>
  <anchor x="215" y="-240" name="bottom"/>
  <anchor x="395" y="763" name="top"/>
  <outline>
    <contour>
      <point x="147" y="283" type="line"/>
      <point x="466" y="283" type="line"/>
      <point x="466" y="308" type="line"/>
      <point x="147" y="308" type="line"/>
    </contour>
    <component base="uni0283"/>
  </outline>
</glyph>
<glyph name="uni02A1" format="2">
  <advance width="600"/>
  <unicode hex="02A1"/>
  <anchor x="261" y="0" name="bottom"/>
  <anchor x="300" y="763" name="top"/>
  <anchor x="530" y="760" name="topright"/>
  <outline>
    <contour>
      <point x="122" y="154" type="line"/>
      <point x="401" y="154" type="line"/>
      <point x="401" y="179" type="line"/>
      <point x="122" y="179" type="line"/>
    </contour>
    <component base="uni0294"/>
  </outline>
</glyph>
<glyph name="Etatonos" format="2">
  <advance width="600"/>
  <unicode hex="0389"/>
  <anchor x="316" y="0" name="bottom"/>
  <anchor x="316" y="377" name="center"/>
  <anchor x="316" y="714" name="top"/>
  <anchor x="36" y="714" name="topleft"/>
  <outline>
    <contour>
      <point x="125" y="0" type="line"/>
      <point x="151" y="0" type="line"/>
      <point x="151" y="363" type="line"/>
      <point x="479" y="363" type="line"/>
      <point x="479" y="0" type="line"/>
      <point x="505" y="0" type="line"/>
      <point x="505" y="714" type="line"/>
      <point x="479" y="714" type="line"/>
      <point x="479" y="388" type="line"/>
      <point x="151" y="388" type="line"/>
      <point x="151" y="714" type="line"/>
      <point x="125" y="714" type="line"/>
    </contour>
    <component base="tonos" xOffset="-298"/>
  </outline>
</glyph>
<glyph name="eta" format="2">
  <advance width="600"/>
  <unicode hex="03B7"/>
  <anchor x="298" y="-240" name="bottom"/>
  <anchor x="307" y="528" name="top"/>
  <anchor x="580" y="528" name="topright"/>
  <outline>
    <contour>
      <point x="474" y="-240" type="line"/>
      <point x="500" y="-240" type="line"/>
      <point x="500" y="68" type="line"/>
      <point x="474" y="68" type="line"/>
    </contour>
    <component base="n"/>
  </outline>
</glyph>
<glyph name="uni03FC" format="2">
  <advance width="600"/>
  <unicode hex="03FC"/>
  <anchor x="300" y="-240" name="bottom"/>
  <anchor x="300" y="528" name="top"/>
  <outline>
    <contour>
      <point x="4" y="-130" type="line"/>
      <point x="306" y="-130" type="line"/>
      <point x="306" y="-105" type="line"/>
      <point x="4" y="-105" type="line"/>
    </contour>
    <component base="rho"/>
  </outline>
</glyph>
<glyph name="afii10043" format="2">
  <advance width="600"/>
  <unicode hex="0429"/>
  <anchor x="300" y="-174" name="bottom"/>
  <anchor x="300" y="714" name="top"/>
  <outline>
    <contour>
      <point x="574" y="-174" type="line"/>
      <point x="600" y="-174" type="line"/>
      <point x="600" y="25" type="line"/>
      <point x="523" y="25" type="line"/>
      <point x="523" y="0" type="line"/>
      <point x="574" y="0" type="line"/>
    </contour>
    <component base="afii10042"/>
  </outline>
</glyph>
<glyph name="afii10092" format="2">
  <advance width="600"/>
  <unicode hex="044A"/>
  <anchor x="300" y="0" name="bottom"/>
  <anchor x="300" y="528" name="top"/>
  <outline>
    <contour>
      <point x="0" y="503" type="line"/>
      <point x="161" y="503" type="line"/>
      <point x="161" y="528" type="line"/>
      <point x="0" y="528" type="line"/>
    </contour>
    <component base="afii10094"/>
  </outline>
</glyph>
<glyph name="afii10099" format="2">
  <advance width="600"/>
  <unicode hex="0452"/>
  <anchor x="300" y="-240" name="bottom"/>
  <anchor x="300" y="760" name="top"/>
  <anchor x="300" y="264" name="center"/>
  <outline>
    <contour>
      <point x="395" y="-240" type="curve" smooth="yes"/>
      <point x="452" y="-240"/>
      <point x="500" y="-201"/>
      <point x="500" y="-120" type="curve" smooth="yes"/>
      <point x="500" y="166" type="line" smooth="yes"/>
      <point x="474" y="165" type="line"/>
      <point x="474" y="-116" type="line" smooth="yes"/>
      <point x="474" y="-178"/>
      <point x="448" y="-215"/>
      <point x="395" y="-215" type="curve" smooth="yes"/>
      <point x="375" y="-215"/>
      <point x="354" y="-213"/>
      <point x="334" y="-204" type="curve"/>
      <point x="334" y="-230" type="line"/>
      <point x="350" y="-236"/>
      <point x="370" y="-240"/>
    </contour>
    <component base="afii10108"/>
  </outline>
</glyph>
<glyph name="afii10101" format="2">
  <advance width="600"/>
  <unicode hex="0454"/>
  <anchor x="300" y="0" name="bottom"/>
  <anchor x="300" y="528" name="top"/>
  <anchor x="580" y="528" name="topright"/>
  <outline>
    <contour>
      <point x="110" y="259" type="line"/>
      <point x="433" y="259" type="line"/>
      <point x="433" y="284" type="line"/>
      <point x="111" y="284" type="line"/>
    </contour>
    <component base="c"/>
  </outline>
</glyph>
<glyph name="uni0473" format="2">
  <advance width="600"/>
  <unicode hex="0473"/>
  <anchor x="300" y="0" name="bottom"/>
  <anchor x="300" y="528" name="top"/>
  <anchor x="300" y="264" name="center"/>
  <anchor x="300" y="10" name="ogonek"/>
  <anchor x="580" y="528" name="topright"/>
  <outline>
    <contour>
      <point x="86" y="253" type="line"/>
      <point x="517" y="253" type="line"/>
      <point x="517" y="278" type="line"/>
      <point x="86" y="278" type="line"/>
    </contour>
    <component base="o"/>
  </outline>
</glyph>
<glyph name="uni0488" format="2">
  <unicode hex="0488"/>
  <outline>
    <contour>
      <point x="-85" y="586" type="curve"/>
      <point x="-66" y="586" type="line"/>
      <point x="-60" y="622"/>
      <point x="-37" y="640"/>
      <point x="0" y="640" type="curve" smooth="yes"/>
      <point x="34" y="640"/>
      <point x="59" y="618"/>
      <point x="65" y="586" type="curve"/>
      <point x="86" y="586" type="line"/>
      <point x="79" y="632"/>
      <point x="49" y="658"/>
      <point x="0" y="658" type="curve" smooth="yes"/>
      <point x="-52" y="658"/>
      <point x="-78" y="635"/>
    </contour>
    <contour>
      <point x="73" y="440" type="curve"/>
      <point x="92" y="440" type="line"/>
      <point x="97" y="476"/>
      <point x="119" y="493"/>
      <point x="157" y="493" type="curve" smooth="yes"/>
      <point x="191" y="493"/>
      <point x="216" y="472"/>
      <point x="223" y="440" type="curve"/>
      <point x="244" y="440" type="line"/>
      <point x="238" y="485"/>
      <point x="206" y="512"/>
      <point x="157" y="512" type="curve" smooth="yes"/>
      <point x="105" y="512"/>
      <point x="77" y="488"/>
    </contour>
    <contour>
      <point x="131" y="243" type="curve"/>
      <point x="150" y="243" type="line"/>
      <point x="156" y="279"/>
      <point x="178" y="297"/>
      <point x="216" y="297" type="curve" smooth="yes"/>
      <point x="249" y="297"/>
      <point x="275" y="275"/>
      <point x="281" y="243" type="curve"/>
      <point x="302" y="243" type="line"/>
      <point x="297" y="288"/>
      <point x="264" y="315"/>
      <point x="216" y="315" type="curve" smooth="yes"/>
      <point x="164" y="315"/>
      <point x="138" y="292"/>
    </contour>
    <contour>
      <point x="73" y="42" type="curve"/>
      <point x="92" y="42" type="line"/>
      <point x="97" y="78"/>
      <point x="119" y="95"/>
      <point x="157" y="95" type="curve" smooth="yes"/>
      <point x="191" y="95"/>
      <point x="216" y="73"/>
      <point x="223" y="42" type="curve"/>
      <point x="244" y="42" type="line"/>
      <point x="238" y="88"/>
      <point x="207" y="113"/>
      <point x="157" y="113" type="curve" smooth="yes"/>
      <point x="105" y="113"/>
      <point x="77" y="90"/>
    </contour>
    <contour>
      <point x="-85" y="-102" type="curve"/>
      <point x="-66" y="-102" type="line"/>
      <point x="-60" y="-67"/>
      <point x="-37" y="-48"/>
      <point x="0" y="-48" type="curve" smooth="yes"/>
      <point x="34" y="-48"/>
      <point x="59" y="-70"/>
      <point x="65" y="-102" type="curve"/>
      <point x="86" y="-102" type="line"/>
      <point x="81" y="-57"/>
      <point x="49" y="-30"/>
      <point x="0" y="-30" type="curve" smooth="yes"/>
      <point x="-50" y="-30"/>
      <point x="-78" y="-54"/>
    </contour>
    <contour>
      <point x="-249" y="42" type="curve"/>
      <point x="-229" y="42" type="line"/>
      <point x="-223" y="78"/>
      <point x="-202" y="95"/>
      <point x="-164" y="95" type="curve" smooth="yes"/>
      <point x="-131" y="95"/>
      <point x="-105" y="74"/>
      <point x="-98" y="42" type="curve"/>
      <point x="-77" y="42" type="line"/>
      <point x="-83" y="88"/>
      <point x="-114" y="113"/>
      <point x="-164" y="113" type="curve" smooth="yes"/>
      <point x="-216" y="113"/>
      <point x="-244" y="90"/>
    </contour>
    <contour>
      <point x="-302" y="243" type="curve"/>
      <point x="-282" y="243" type="line"/>
      <point x="-276" y="279"/>
      <point x="-254" y="297"/>
      <point x="-217" y="297" type="curve" smooth="yes"/>
      <point x="-181" y="297"/>
      <point x="-156" y="276"/>
      <point x="-151" y="243" type="curve"/>
      <point x="-130" y="243" type="line"/>
      <point x="-136" y="289"/>
      <point x="-168" y="315"/>
      <point x="-217" y="315" type="curve" smooth="yes"/>
      <point x="-269" y="315"/>
      <point x="-297" y="291"/>
    </contour>
    <contour>
      <point x="-249" y="440" type="curve"/>
      <point x="-229" y="440" type="line"/>
      <point x="-223" y="476"/>
      <point x="-202" y="493"/>
      <point x="-164" y="493" type="curve" smooth="yes"/>
      <point x="-131" y="493"/>
      <point x="-105" y="472"/>
      <point x="-98" y="440" type="curve"/>
      <point x="-77" y="440" type="line"/>
      <point x="-83" y="485"/>
      <point x="-115" y="512"/>
      <point x="-164" y="512" type="curve" smooth="yes"/>
      <point x="-216" y="512"/>
      <point x="-244" y="488"/>
    </contour>
  </outline>
</glyph>
<glyph name="uni0489" format="2">
  <unicode hex="0489"/>
  <outline>
    <contour>
      <point x="207" y="468" type="line"/>
      <point x="245" y="499"/>
      <point x="302" y="536"/>
      <point x="356" y="561" type="curve"/>
      <point x="339" y="578" type="line"/>
      <point x="284" y="557"/>
      <point x="225" y="523"/>
      <point x="189" y="497" type="curve"/>
      <point x="187" y="488" type="line"/>
    </contour>
    <contour>
      <point x="-340" y="-38" type="line"/>
      <point x="-285" y="-17"/>
      <point x="-226" y="17"/>
      <point x="-190" y="43" type="curve"/>
      <point x="-188" y="52" type="line"/>
      <point x="-208" y="72" type="line"/>
      <point x="-246" y="41"/>
      <point x="-303" y="4"/>
      <point x="-357" y="-21" type="curve"/>
    </contour>
    <contour>
      <point x="-295" y="244" type="curve"/>
      <point x="-288" y="249" type="line"/>
      <point x="-288" y="277" type="line"/>
      <point x="-336" y="282"/>
      <point x="-403" y="297"/>
      <point x="-459" y="317" type="curve"/>
      <point x="-459" y="293" type="line"/>
      <point x="-405" y="269"/>
      <point x="-340" y="251"/>
    </contour>
    <contour>
      <point x="-47" y="-188" type="curve"/>
      <point x="-23" y="-188" type="line"/>
      <point x="1" y="-134"/>
      <point x="19" y="-69"/>
      <point x="26" y="-24" type="curve"/>
      <point x="21" y="-17" type="line"/>
      <point x="-7" y="-17" type="line"/>
      <point x="-12" y="-65"/>
      <point x="-27" y="-132"/>
    </contour>
    <contour>
      <point x="290" y="-87" type="curve"/>
      <point x="307" y="-70" type="line"/>
      <point x="286" y="-15"/>
      <point x="253" y="44"/>
      <point x="226" y="81" type="curve"/>
      <point x="218" y="82" type="line"/>
      <point x="198" y="62" type="line"/>
      <point x="228" y="25"/>
      <point x="265" y="-33"/>
    </contour>
    <contour>
      <point x="-219" y="458" type="line"/>
      <point x="-199" y="478" type="line"/>
      <point x="-229" y="515"/>
      <point x="-266" y="573"/>
      <point x="-291" y="627" type="curve"/>
      <point x="-308" y="610" type="line"/>
      <point x="-287" y="555"/>
      <point x="-254" y="496"/>
      <point x="-227" y="459" type="curve"/>
    </contour>
    <contour>
      <point x="458" y="224" type="curve"/>
      <point x="458" y="248" type="line"/>
      <point x="404" y="272"/>
      <point x="339" y="290"/>
      <point x="294" y="297" type="curve"/>
      <point x="287" y="292" type="line"/>
      <point x="287" y="264" type="line"/>
      <point x="335" y="259"/>
      <point x="402" y="244"/>
    </contour>
    <contour>
      <point x="-22" y="557" type="line"/>
      <point x="6" y="557" type="line"/>
      <point x="11" y="605"/>
      <point x="26" y="672"/>
      <point x="46" y="728" type="curve"/>
      <point x="22" y="728" type="line"/>
      <point x="-2" y="674"/>
      <point x="-20" y="609"/>
      <point x="-27" y="564" type="curve"/>
    </contour>
  </outline>
</glyph>
<glyph name="uni048B" format="2">
  <advance width="600"/>
  <unicode hex="048B"/>
  <anchor x="300" y="-175" name="bottom"/>
  <anchor x="300" y="718" name="top"/>
  <anchor x="580" y="0" name="bottomright"/>
  <outline>
    <contour>
      <point x="487" y="-175" type="line"/>
      <point x="515" y="-175" type="line"/>
      <point x="600" y="25" type="line"/>
      <point x="488" y="25" type="line"/>
      <point x="482" y="0" type="line"/>
      <point x="562" y="0" type="line"/>
    </contour>
    <component base="afii10074"/>
    <component base="breve"/>
  </outline>
</glyph>
<glyph name="uni048C" format="2">
  <advance width="600"/>
  <unicode hex="048C"/>
  <anchor x="300" y="0" name="bottom"/>
  <anchor x="130" y="714" name="top"/>
  <outline>
    <contour>
      <point x="9" y="565" type="line"/>
      <point x="360" y="565" type="line"/>
      <point x="360" y="590" type="line"/>
      <point x="9" y="590" type="line"/>
    </contour>
    <component base="afii10046"/>
  </outline>
</glyph>
<glyph name="uni0492" format="2">
  <advance width="600"/>
  <unicode hex="0492"/>
  <anchor x="300" y="0" name="bottom"/>
  <anchor x="300" y="714" name="top"/>
  <anchor x="580" y="0" name="bottomright"/>
  <outline>
    <contour>
      <point x="18" y="343" type="line"/>
      <point x="379" y="343" type="line"/>
      <point x="379" y="368" type="line"/>
      <point x="18" y="368" type="line"/>
    </contour>
    <component base="afii10020"/>
  </outline>
</glyph>
<glyph name="uni0496" format="2">
  <advance width="600"/>
  <unicode hex="0496"/>
  <anchor x="300" y="-175" name="bottom"/>
  <anchor x="300" y="714" name="top"/>
  <anchor x="580" y="0" name="bottomright"/>
  <outline>
    <contour>
      <point x="565" y="-175" type="line"/>
      <point x="590" y="-175" type="line"/>
      <point x="590" y="25" type="line"/>
      <point x="553" y="25" type="line"/>
      <point x="565" y="0" type="line"/>
    </contour>
    <component base="afii10024"/>
  </outline>
</glyph>
<glyph name="uni049A" format="2">
  <advance width="600"/>
  <unicode hex="049A"/>
  <anchor x="300" y="-170" name="bottom"/>
  <anchor x="300" y="714" name="top"/>
  <anchor x="580" y="0" name="bottomright"/>
  <outline>
    <contour>
      <point x="526" y="-175" type="line"/>
      <point x="551" y="-175" type="line"/>
      <point x="551" y="25" type="line"/>
      <point x="496" y="25" type="line"/>
      <point x="526" y="0" type="line"/>
    </contour>
    <component base="afii10028"/>
  </outline>
</glyph>
<glyph name="uni049B" format="2">
  <advance width="600"/>
  <unicode hex="049B"/>
  <anchor x="328" y="-173" name="bottom"/>
  <anchor x="300" y="528" name="top"/>
  <anchor x="580" y="0" name="bottomright"/>
  <outline>
    <contour>
      <point x="523" y="-175" type="line"/>
      <point x="548" y="-175" type="line"/>
      <point x="548" y="25" type="line"/>
      <point x="494" y="25" type="line"/>
      <point x="523" y="0" type="line"/>
    </contour>
    <component base="afii10076"/>
  </outline>
</glyph>
<glyph name="uni049C" format="2">
  <advance width="600"/>
  <unicode hex="049C"/>
  <anchor x="300" y="0" name="bottom"/>
  <anchor x="300" y="714" name="top"/>
  <anchor x="580" y="0" name="bottomright"/>
  <outline>
    <contour>
      <point x="240" y="133" type="line"/>
      <point x="266" y="133" type="line"/>
      <point x="266" y="600" type="line"/>
      <point x="240" y="600" type="line"/>
    </contour>
    <component base="afii10028"/>
  </outline>
</glyph>
<glyph name="uni049D" format="2">
  <advance width="600"/>
  <unicode hex="049D"/>
  <anchor x="300" y="0" name="bottom"/>
  <anchor x="300" y="528" name="top"/>
  <anchor x="580" y="0" name="bottomright"/>
  <outline>
    <contour>
      <point x="286" y="47" type="line"/>
      <point x="312" y="47" type="line"/>
      <point x="312" y="486" type="line"/>
      <point x="286" y="486" type="line"/>
    </contour>
    <component base="afii10076"/>
  </outline>
</glyph>
<glyph name="uni049E" format="2">
  <advance width="600"/>
  <unicode hex="049E"/>
  <anchor x="300" y="0" name="bottom"/>
  <anchor x="300" y="714" name="top"/>
  <anchor x="580" y="0" name="bottomright"/>
  <outline>
    <contour>
      <point x="11" y="593" type="line"/>
      <point x="249" y="593" type="line"/>
      <point x="249" y="618" type="line"/>
      <point x="11" y="618" type="line"/>
    </contour>
    <component base="afii10028"/>
  </outline>
</glyph>
<glyph name="uni04AC" format="2">
  <advance width="600"/>
  <unicode hex="04AC"/>
  <anchor x="300" y="-175" name="bottom"/>
  <anchor x="300" y="714" name="top"/>
  <anchor x="300" y="357" name="center"/>
  <anchor x="580" y="714" name="topright"/>
  <outline>
    <contour>
      <point x="367" y="-175" type="line"/>
      <point x="392" y="-175" type="line"/>
      <point x="392" y="25" type="line"/>
      <point x="305" y="25" type="line"/>
      <point x="305" y="0" type="line"/>
      <point x="367" y="0" type="line"/>
    </contour>
    <component base="T"/>
  </outline>
</glyph>
<glyph name="uni04B9" format="2">
  <advance width="600"/>
  <unicode hex="04B9"/>
  <anchor x="300" y="0" name="bottom"/>
  <anchor x="300" y="528" name="top"/>
  <anchor x="580" y="0" name="bottomright"/>
  <outline>
    <contour>
      <point x="285" y="65" type="line"/>
      <point x="311" y="65" type="line"/>
      <point x="311" y="369" type="line"/>
      <point x="285" y="369" type="line"/>
    </contour>
    <component base="afii10089"/>
  </outline>
</glyph>
<glyph name="uni04BF" format="2">
  <advance width="600"/>
  <unicode hex="04BF"/>
  <anchor x="365" y="-240" name="bottom"/>
  <anchor x="357" y="528" name="top"/>
  <outline>
    <contour>
      <point x="351" y="-175" type="line"/>
      <point x="377" y="-175" type="line"/>
      <point x="377" y="15" type="line"/>
      <point x="351" y="15" type="line"/>
    </contour>
    <component base="uni04BD"/>
  </outline>
</glyph>
<glyph name="uni04C9" format="2">
  <advance width="600"/>
  <unicode hex="04C9"/>
  <anchor x="300" y="-169" name="bottom"/>
  <anchor x="300" y="714" name="top"/>
  <anchor x="300" y="377" name="center"/>
  <anchor x="20" y="714" name="topleft"/>
  <anchor x="600" y="714" name="topright"/>
  <outline>
    <contour>
      <point x="489" y="-175" type="line"/>
      <point x="517" y="-175" type="line"/>
      <point x="582" y="25" type="line"/>
      <point x="497" y="25" type="line"/>
      <point x="487" y="0" type="line"/>
      <point x="547" y="0" type="line"/>
    </contour>
    <component base="H"/>
  </outline>
</glyph>
<glyph name="uni04CB" format="2">
  <advance width="600"/>
  <unicode hex="04CB"/>
  <anchor x="300" y="-240" name="bottom"/>
  <anchor x="300" y="714" name="top"/>
  <anchor x="580" y="0" name="bottomright"/>
  <outline>
    <contour>
      <point x="414" y="-175" type="line"/>
      <point x="439" y="-175" type="line"/>
      <point x="439" y="0" type="line"/>
      <point x="497" y="0" type="line"/>
      <point x="491" y="25" type="line"/>
      <point x="414" y="25" type="line"/>
    </contour>
    <component base="afii10041"/>
  </outline>
</glyph>
<glyph name="uni04CC" format="2">
  <advance width="600"/>
  <unicode hex="04CC"/>
  <anchor x="300" y="-240" name="bottom"/>
  <anchor x="300" y="528" name="top"/>
  <anchor x="580" y="0" name="bottomright"/>
  <outline>
    <contour>
      <point x="413" y="-176" type="line"/>
      <point x="439" y="-176" type="line"/>
      <point x="439" y="0" type="line"/>
      <point x="485" y="0" type="line"/>
      <point x="479" y="25" type="line"/>
      <point x="413" y="25" type="line"/>
    </contour>
    <component base="afii10089"/>
  </outline>
</glyph>
<glyph name="uni04CD" format="2">
  <advance width="600"/>
  <unicode hex="04CD"/>
  <anchor x="300" y="-179" name="bottom"/>
  <anchor x="300" y="714" name="top"/>
  <anchor x="600" y="714" name="topright"/>
  <outline>
    <contour>
      <point x="507" y="-175" type="line"/>
      <point x="535" y="-175" type="line"/>
      <point x="600" y="25" type="line"/>
      <point x="535" y="25" type="line"/>
      <point x="525" y="0" type="line"/>
      <point x="565" y="0" type="line"/>
    </contour>
    <component base="M"/>
  </outline>
</glyph>
<glyph name="uni04CE" format="2">
  <advance width="600"/>
  <unicode hex="04CE"/>
  <anchor x="300" y="-240" name="bottom"/>
  <anchor x="300" y="528" name="top"/>
  <outline>
    <contour>
      <point x="487" y="-175" type="line"/>
      <point x="515" y="-175" type="line"/>
      <point x="600" y="25" type="line"/>
      <point x="518" y="25" type="line"/>
      <point x="512" y="0" type="line"/>
      <point x="562" y="0" type="line"/>
    </contour>
    <component base="afii10078"/>
  </outline>
</glyph>
<glyph name="uni04FE" format="2">
  <advance width="600"/>
  <unicode hex="04FE"/>
  <anchor x="300" y="0" name="bottom"/>
  <anchor x="300" y="714" name="top"/>
  <anchor x="580" y="714" name="topright"/>
  <outline>
    <contour>
      <point x="124" y="361" type="line"/>
      <point x="479" y="361" type="line"/>
      <point x="479" y="386" type="line"/>
      <point x="124" y="386" type="line"/>
    </contour>
    <component base="X"/>
  </outline>
</glyph>
<glyph name="uni051E" format="2">
  <advance width="600"/>
  <unicode hex="051E"/>
  <anchor x="300" y="0" name="bottom"/>
  <anchor x="300" y="714" name="top"/>
  <anchor x="580" y="0" name="bottomright"/>
  <outline>
    <contour>
      <point x="462" y="448" type="line"/>
      <point x="479" y="467" type="line"/>
      <point x="248" y="682" type="line"/>
      <point x="231" y="664" type="line"/>
    </contour>
    <component base="afii10028"/>
  </outline>
</glyph>
<glyph name="uni051F" format="2">
  <advance width="600"/>
  <unicode hex="051F"/>
  <anchor x="300" y="0" name="bottom"/>
  <anchor x="300" y="528" name="top"/>
  <anchor x="580" y="0" name="bottomright"/>
  <outline>
    <contour>
      <point x="451" y="300" type="line"/>
      <point x="466" y="317" type="line"/>
      <point x="259" y="503" type="line"/>
      <point x="242" y="486" type="line"/>
    </contour>
    <component base="afii10076"/>
  </outline>
</glyph>
<glyph name="uni0527" format="2">
  <advance width="600"/>
  <unicode hex="0527"/>
  <anchor x="300" y="-176" name="bottom"/>
  <anchor x="116" y="760" name="top"/>
  <anchor x="300" y="264" name="center"/>
  <anchor x="580" y="760" name="topright"/>
  <outline>
    <contour>
      <point x="522" y="-176" type="line"/>
      <point x="548" y="-176" type="line"/>
      <point x="548" y="25" type="line"/>
      <point x="480" y="25" type="line"/>
      <point x="480" y="0" type="line"/>
      <point x="522" y="0" type="line"/>
    </contour>
    <component base="h"/>
  </outline>
</glyph>
<glyph name="uni0529" format="2">
  <advance width="600"/>
  <unicode hex="0529"/>
  <anchor x="299" y="-240" name="bottom"/>
  <anchor x="300" y="528" name="top"/>
  <anchor x="580" y="0" name="bottomright"/>
  <outline>
    <contour>
      <point x="26" y="-240" type="curve" smooth="yes"/>
      <point x="83" y="-240"/>
      <point x="131" y="-201"/>
      <point x="131" y="-120" type="curve" smooth="yes"/>
      <point x="131" y="166" type="line" smooth="yes"/>
      <point x="105" y="165" type="line"/>
      <point x="105" y="-116" type="line" smooth="yes"/>
      <point x="105" y="-178"/>
      <point x="79" y="-215"/>
      <point x="26" y="-215" type="curve" smooth="yes"/>
      <point x="6" y="-215"/>
      <point x="-15" y="-213"/>
      <point x="-35" y="-204" type="curve"/>
      <point x="-35" y="-230" type="line"/>
      <point x="-19" y="-236"/>
      <point x="1" y="-240"/>
    </contour>
    <component base="afii10079"/>
  </outline>
</glyph>
<glyph name="uni052B" format="2">
  <advance width="1200"/>
  <unicode hex="052B"/>
  <anchor x="600" y="-176" name="bottom"/>
  <anchor x="600" y="528" name="top"/>
  <anchor x="1180" y="0" name="bottomright"/>
  <outline>
    <contour>
      <point x="454" y="266" type="line"/>
      <point x="752" y="266" type="line"/>
      <point x="752" y="291" type="line"/>
      <point x="454" y="291" type="line"/>
    </contour>
    <component base="afii10069"/>
    <component base="afii10076" xOffset="600"/>
  </outline>
</glyph>
<glyph name="uni052E" format="2">
  <advance width="600"/>
  <unicode hex="052E"/>
  <anchor x="308" y="-175" name="bottom"/>
  <anchor x="379" y="714" name="top"/>
  <outline>
    <contour>
      <point x="554" y="-175" type="line"/>
      <point x="579" y="-175" type="line"/>
      <point x="579" y="25" type="line"/>
      <point x="499" y="25" type="line"/>
      <point x="499" y="0" type="line"/>
      <point x="554" y="0" type="line"/>
    </contour>
    <component base="afii10029"/>
  </outline>
</glyph>
<glyph name="uni1ABA" format="2">
  <unicode hex="1ABA"/>
  <anchor x="0" y="0" name="_bottom"/>
  <anchor x="0" y="-225" name="bottom"/>
  <outline>
    <contour>
      <point x="-50" y="-219" type="line"/>
      <point x="71" y="40" type="line"/>
      <point x="40" y="40" type="line"/>
      <point x="-69" y="-196" type="line"/>
    </contour>
    <contour>
      <point x="-47" y="-225" type="curve" smooth="yes"/>
      <point x="-31" y="-225"/>
      <point x="-20" y="-208"/>
      <point x="-20" y="-182" type="curve" smooth="yes"/>
      <point x="-20" y="-156"/>
      <point x="-31" y="-140"/>
      <point x="-47" y="-140" type="curve" smooth="yes"/>
      <point x="-64" y="-140"/>
      <point x="-72" y="-155"/>
      <point x="-72" y="-182" type="curve" smooth="yes"/>
      <point x="-72" y="-211"/>
      <point x="-64" y="-225"/>
    </contour>
  </outline>
</glyph>
<glyph name="uni1D06" format="2">
  <advance width="600"/>
  <unicode hex="1D06"/>
  <anchor x="290" y="0" name="bottom"/>
  <anchor x="290" y="528" name="top"/>
  <outline>
    <contour>
      <point x="20" y="250" type="line"/>
      <point x="251" y="250" type="line"/>
      <point x="251" y="275" type="line"/>
      <point x="20" y="275" type="line"/>
    </contour>
    <component base="uni1D05"/>
  </outline>
</glyph>
<glyph name="uni1D0C" format="2">
  <advance width="600"/>
  <unicode hex="1D0C"/>
  <anchor x="340" y="0" name="bottom"/>
  <anchor x="194" y="528" name="top"/>
  <outline>
    <contour>
      <point x="108" y="225" type="line"/>
      <point x="309" y="342" type="line"/>
      <point x="297" y="364" type="line"/>
      <point x="96" y="248" type="line"/>
    </contour>
    <component base="uni029F"/>
  </outline>
</glyph>
<glyph name="uni1D24" format="2">
  <advance width="600"/>
  <unicode hex="1D24"/>
  <anchor x="300" y="0" name="bottom"/>
  <anchor x="297" y="528" name="top"/>
  <outline>
    <contour>
      <point x="312" y="-10" type="curve" smooth="yes"/>
      <point x="382" y="-10"/>
      <point x="432" y="5"/>
      <point x="460" y="17" type="curve"/>
      <point x="460" y="43" type="line"/>
      <point x="417" y="25"/>
      <point x="371" y="15"/>
      <point x="312" y="15" type="curve" smooth="yes"/>
      <point x="217" y="15"/>
      <point x="167" y="54"/>
      <point x="167" y="128" type="curve" smooth="yes"/>
      <point x="167" y="204"/>
      <point x="233" y="227"/>
      <point x="313" y="251" type="curve"/>
      <point x="313" y="273" type="line"/>
      <point x="380" y="297"/>
      <point x="449" y="327"/>
      <point x="449" y="413" type="curve" smooth="yes"/>
      <point x="449" y="495"/>
      <point x="383" y="538"/>
      <point x="291" y="538" type="curve" smooth="yes"/>
      <point x="236" y="538"/>
      <point x="185" y="523"/>
      <point x="148" y="508" type="curve"/>
      <point x="159" y="483" type="line"/>
      <point x="191" y="499"/>
      <point x="246" y="513"/>
      <point x="291" y="513" type="curve" smooth="yes"/>
      <point x="367" y="513"/>
      <point x="422" y="484"/>
      <point x="422" y="413" type="curve" smooth="yes"/>
      <point x="422" y="335"/>
      <point x="357" y="313"/>
      <point x="287" y="290" type="curve"/>
      <point x="287" y="269" type="line"/>
      <point x="215" y="248"/>
      <point x="140" y="219"/>
      <point x="140" y="128" type="curve" smooth="yes"/>
      <point x="140" y="39"/>
      <point x="206" y="-10"/>
    </contour>
  </outline>
</glyph>
<glyph name="uni1D6C" format="2">
  <advance width="600"/>
  <unicode hex="1D6C"/>
  <anchor x="300" y="0" name="bottom"/>
  <anchor x="300" y="760" name="top"/>
  <anchor x="580" y="760" name="topright"/>
  <outline>
    <contour>
      <point x="-43" y="602" type="curve"/>
      <point x="-18" y="602" type="line"/>
      <point x="-12" y="664"/>
      <point x="17" y="678"/>
      <point x="44" y="678" type="curve" smooth="yes"/>
      <point x="102" y="678"/>
      <point x="123" y="603"/>
      <point x="191" y="603" type="curve" smooth="yes"/>
      <point x="241" y="603"/>
      <point x="277" y="637"/>
      <point x="282" y="702" type="curve"/>
      <point x="257" y="702" type="line"/>
      <point x="251" y="641"/>
      <point x="221" y="627"/>
      <point x="192" y="627" type="curve" smooth="yes"/>
      <point x="138" y="627"/>
      <point x="112" y="702"/>
      <point x="46" y="702" type="curve" smooth="yes"/>
      <point x="-5" y="702"/>
      <point x="-38" y="669"/>
    </contour>
    <component base="b"/>
  </outline>
</glyph>
<glyph name="uni1D6E" format="2">
  <advance width="600"/>
  <unicode hex="1D6E"/>
  <anchor x="310" y="0" name="bottom"/>
  <anchor x="430" y="765" name="top"/>
  <anchor x="630" y="765" name="topright"/>
  <outline>
    <contour>
      <point x="129" y="227" type="curve"/>
      <point x="154" y="227" type="line"/>
      <point x="160" y="289"/>
      <point x="189" y="303"/>
      <point x="216" y="303" type="curve" smooth="yes"/>
      <point x="274" y="303"/>
      <point x="295" y="228"/>
      <point x="363" y="228" type="curve" smooth="yes"/>
      <point x="413" y="228"/>
      <point x="449" y="262"/>
      <point x="454" y="327" type="curve"/>
      <point x="429" y="327" type="line"/>
      <point x="423" y="266"/>
      <point x="393" y="252"/>
      <point x="364" y="252" type="curve" smooth="yes"/>
      <point x="310" y="252"/>
      <point x="284" y="327"/>
      <point x="218" y="327" type="curve" smooth="yes"/>
      <point x="167" y="327"/>
      <point x="134" y="294"/>
    </contour>
    <component base="f" xOffset="10"/>
  </outline>
</glyph>
<glyph name="uni1D70" format="2">
  <advance width="600"/>
  <unicode hex="1D70"/>
  <anchor x="309" y="0" name="bottom"/>
  <anchor x="308" y="528" name="top"/>
  <anchor x="580" y="528" name="topright"/>
  <outline>
    <contour>
      <point x="4" y="200" type="curve"/>
      <point x="28" y="200" type="line"/>
      <point x="32" y="268"/>
      <point x="72" y="296"/>
      <point x="146" y="296" type="curve" smooth="yes"/>
      <point x="264" y="296"/>
      <point x="346" y="204"/>
      <point x="454" y="204" type="curve" smooth="yes"/>
      <point x="529" y="204"/>
      <point x="588" y="240"/>
      <point x="594" y="324" type="curve"/>
      <point x="570" y="324" type="line"/>
      <point x="566" y="269"/>
      <point x="532" y="228"/>
      <point x="459" y="228" type="curve" smooth="yes"/>
      <point x="349" y="228"/>
      <point x="271" y="320"/>
      <point x="150" y="320" type="curve" smooth="yes"/>
      <point x="66" y="320"/>
      <point x="7" y="284"/>
    </contour>
    <component base="n"/>
  </outline>
</glyph>
<glyph name="uni1D71" format="2">
  <advance width="600"/>
  <unicode hex="1D71"/>
  <anchor x="320" y="-240" name="bottom"/>
  <anchor x="320" y="528" name="top"/>
  <anchor x="580" y="528" name="topright"/>
  <outline>
    <contour>
      <point x="-43" y="-162" type="curve"/>
      <point x="-18" y="-162" type="line"/>
      <point x="-12" y="-100"/>
      <point x="17" y="-85"/>
      <point x="44" y="-85" type="curve" smooth="yes"/>
      <point x="102" y="-85"/>
      <point x="123" y="-160"/>
      <point x="191" y="-160" type="curve" smooth="yes"/>
      <point x="241" y="-160"/>
      <point x="277" y="-126"/>
      <point x="282" y="-61" type="curve"/>
      <point x="257" y="-61" type="line"/>
      <point x="251" y="-122"/>
      <point x="221" y="-136"/>
      <point x="192" y="-136" type="curve" smooth="yes"/>
      <point x="138" y="-136"/>
      <point x="112" y="-61"/>
      <point x="46" y="-61" type="curve" smooth="yes"/>
      <point x="-5" y="-61"/>
      <point x="-38" y="-94"/>
    </contour>
    <component base="p"/>
  </outline>
</glyph>
<glyph name="uni1D73" format="2">
  <advance width="600"/>
  <unicode hex="1D73"/>
  <anchor x="350" y="0" name="bottom"/>
  <anchor x="427" y="528" name="top"/>
  <outline>
    <contour>
      <point x="118" y="203" type="curve"/>
      <point x="143" y="203" type="line"/>
      <point x="149" y="265"/>
      <point x="178" y="279"/>
      <point x="205" y="279" type="curve" smooth="yes"/>
      <point x="263" y="279"/>
      <point x="284" y="204"/>
      <point x="352" y="204" type="curve" smooth="yes"/>
      <point x="402" y="204"/>
      <point x="438" y="238"/>
      <point x="443" y="303" type="curve"/>
      <point x="418" y="303" type="line"/>
      <point x="412" y="242"/>
      <point x="382" y="228"/>
      <point x="353" y="228" type="curve" smooth="yes"/>
      <point x="299" y="228"/>
      <point x="273" y="303"/>
      <point x="207" y="303" type="curve" smooth="yes"/>
      <point x="156" y="303"/>
      <point x="123" y="270"/>
    </contour>
    <component base="uni027E" xOffset="50"/>
  </outline>
</glyph>
<glyph name="uni1D7A" format="2">
  <advance width="1200"/>
  <unicode hex="1D7A"/>
  <anchor x="387" y="0" name="bottom_1"/>
  <anchor x="900" y="0" name="bottom_2"/>
  <anchor x="267" y="264" name="center_1"/>
  <anchor x="900" y="264" name="center_2"/>
  <anchor x="270" y="659" name="top_1"/>
  <anchor x="716" y="760" name="top_2"/>
  <anchor x="580" y="659" name="topright_1"/>
  <anchor x="1180" y="760" name="topright_2"/>
  <outline>
    <contour>
      <point x="176" y="-75" type="line"/>
      <point x="207" y="-75" type="line"/>
      <point x="957" y="760" type="line"/>
      <point x="926" y="760" type="line"/>
    </contour>
    <component base="t"/>
    <component base="h" xOffset="600"/>
  </outline>
</glyph>
<glyph name="uni1D7C" format="2">
  <advance width="600"/>
  <unicode hex="1D7C"/>
  <anchor x="373" y="0" name="bottom"/>
  <anchor x="280" y="528" name="top"/>
  <outline>
    <contour>
      <point x="141" y="278" type="line"/>
      <point x="417" y="278" type="line"/>
      <point x="417" y="303" type="line"/>
      <point x="141" y="303" type="line"/>
    </contour>
    <component base="iota"/>
  </outline>
</glyph>
<glyph name="uni1D80" format="2">
  <advance width="600"/>
  <unicode hex="1D80"/>
  <anchor x="300" y="0" name="bottom"/>
  <anchor x="300" y="760" name="top"/>
  <anchor x="580" y="760" name="topright"/>
  <outline>
    <contour>
      <point x="373" y="-169" type="curve" smooth="yes"/>
      <point x="419" y="-169"/>
      <point x="450" y="-141"/>
      <point x="450" y="-81" type="curve" smooth="yes"/>
      <point x="450" y="45" type="line"/>
      <point x="424" y="20" type="line"/>
      <point x="424" y="-82" type="line" smooth="yes"/>
      <point x="424" y="-129"/>
      <point x="404" y="-144"/>
      <point x="371" y="-144" type="curve" smooth="yes"/>
      <point x="354" y="-144"/>
      <point x="340" y="-140"/>
      <point x="331" y="-135" type="curve"/>
      <point x="331" y="-160" type="line"/>
      <point x="340" y="-165"/>
      <point x="354" y="-169"/>
    </contour>
    <component base="b"/>
  </outline>
</glyph>
<glyph name="uni1D85" format="2">
  <advance width="600"/>
  <unicode hex="1D85"/>
  <anchor x="314" y="0" name="bottom"/>
  <anchor x="314" y="379" name="center"/>
  <anchor x="300" y="760" name="top"/>
  <anchor x="486" y="760" name="topright"/>
  <outline>
    <contour>
      <point x="362" y="-169" type="curve" smooth="yes"/>
      <point x="408" y="-169"/>
      <point x="439" y="-141"/>
      <point x="439" y="-81" type="curve" smooth="yes"/>
      <point x="439" y="15" type="line"/>
      <point x="383" y="15" type="line"/>
      <point x="383" y="0" type="line"/>
      <point x="413" y="0" type="line"/>
      <point x="413" y="-82" type="line" smooth="yes"/>
      <point x="413" y="-129"/>
      <point x="393" y="-144"/>
      <point x="360" y="-144" type="curve" smooth="yes"/>
      <point x="343" y="-144"/>
      <point x="329" y="-140"/>
      <point x="320" y="-135" type="curve"/>
      <point x="320" y="-160" type="line"/>
      <point x="329" y="-165"/>
      <point x="343" y="-169"/>
    </contour>
    <component base="l"/>
  </outline>
</glyph>
<glyph name="uni1D86" format="2">
  <advance width="600"/>
  <unicode hex="1D86"/>
  <anchor x="303" y="0" name="bottom"/>
  <anchor x="311" y="528" name="top"/>
  <anchor x="580" y="528" name="topright"/>
  <outline>
    <contour>
      <point x="491" y="-169" type="curve" smooth="yes"/>
      <point x="537" y="-169"/>
      <point x="568" y="-141"/>
      <point x="568" y="-81" type="curve" smooth="yes"/>
      <point x="568" y="25" type="line"/>
      <point x="512" y="25" type="line"/>
      <point x="512" y="0" type="line"/>
      <point x="542" y="0" type="line"/>
      <point x="542" y="-82" type="line" smooth="yes"/>
      <point x="542" y="-129"/>
      <point x="522" y="-144"/>
      <point x="489" y="-144" type="curve" smooth="yes"/>
      <point x="472" y="-144"/>
      <point x="458" y="-140"/>
      <point x="449" y="-135" type="curve"/>
      <point x="449" y="-160" type="line"/>
      <point x="458" y="-165"/>
      <point x="472" y="-169"/>
    </contour>
    <component base="m"/>
  </outline>
</glyph>
<glyph name="uni1D88" format="2">
  <advance width="600"/>
  <unicode hex="1D88"/>
  <anchor x="320" y="-240" name="bottom"/>
  <anchor x="320" y="528" name="top"/>
  <anchor x="580" y="528" name="topright"/>
  <outline>
    <contour>
      <point x="334" y="-169" type="curve" smooth="yes"/>
      <point x="380" y="-169"/>
      <point x="411" y="-141"/>
      <point x="411" y="-81" type="curve" smooth="yes"/>
      <point x="411" y="25" type="line"/>
      <point x="355" y="5" type="line"/>
      <point x="355" y="0" type="line"/>
      <point x="385" y="0" type="line"/>
      <point x="385" y="-82" type="line" smooth="yes"/>
      <point x="385" y="-129"/>
      <point x="365" y="-144"/>
      <point x="332" y="-144" type="curve" smooth="yes"/>
      <point x="315" y="-144"/>
      <point x="301" y="-140"/>
      <point x="292" y="-135" type="curve"/>
      <point x="292" y="-160" type="line"/>
      <point x="301" y="-165"/>
      <point x="315" y="-169"/>
    </contour>
    <component base="p"/>
  </outline>
</glyph>
<glyph name="uni1D8B" format="2">
  <advance width="600"/>
  <unicode hex="1D8B"/>
  <anchor x="223" y="-240" name="bottom"/>
  <anchor x="416" y="763" name="top"/>
  <outline>
    <contour>
      <point x="314" y="0" type="line"/>
      <point x="440" y="0" type="line"/>
      <point x="440" y="25" type="line"/>
      <point x="314" y="25" type="line"/>
    </contour>
    <component base="uni0283"/>
    <component base="cyrillicbighooklc" xOffset="130"/>
  </outline>
</glyph>
<glyph name="uni1D92" format="2">
  <advance width="600"/>
  <unicode hex="1D92"/>
  <anchor x="310" y="0" name="bottom"/>
  <anchor x="315" y="10" name="ogonek"/>
  <anchor x="303" y="528" name="top"/>
  <anchor x="580" y="528" name="topright"/>
  <outline>
    <contour>
      <point x="566" y="-187" type="curve" smooth="yes"/>
      <point x="585" y="-187"/>
      <point x="602" y="-182"/>
      <point x="610" y="-178" type="curve"/>
      <point x="610" y="-153" type="line"/>
      <point x="599" y="-158"/>
      <point x="583" y="-162"/>
      <point x="566" y="-162" type="curve" smooth="yes"/>
      <point x="529" y="-162"/>
      <point x="510" y="-142"/>
      <point x="510" y="-89" type="curve" smooth="yes"/>
      <point x="510" y="51" type="line"/>
      <point x="484" y="30" type="line"/>
      <point x="484" y="-92" type="line" smooth="yes"/>
      <point x="484" y="-157"/>
      <point x="510" y="-187"/>
    </contour>
    <component base="e"/>
  </outline>
</glyph>
<glyph name="uni1D93" format="2">
  <advance width="600"/>
  <unicode hex="1D93"/>
  <anchor x="326" y="0" name="bottom"/>
  <anchor x="323" y="528" name="top"/>
  <outline>
    <contour>
      <point x="551" y="-187" type="curve" smooth="yes"/>
      <point x="570" y="-187"/>
      <point x="587" y="-182"/>
      <point x="595" y="-178" type="curve"/>
      <point x="595" y="-153" type="line"/>
      <point x="584" y="-158"/>
      <point x="568" y="-162"/>
      <point x="551" y="-162" type="curve" smooth="yes"/>
      <point x="514" y="-162"/>
      <point x="495" y="-142"/>
      <point x="495" y="-89" type="curve" smooth="yes"/>
      <point x="495" y="41" type="line"/>
      <point x="469" y="29" type="line"/>
      <point x="469" y="-92" type="line" smooth="yes"/>
      <point x="469" y="-157"/>
      <point x="495" y="-187"/>
    </contour>
    <component base="epsilon"/>
  </outline>
</glyph>
<glyph name="uni1D96" format="2">
  <advance width="600"/>
  <unicode hex="1D96"/>
  <anchor x="321" y="0" name="bottom"/>
  <anchor x="320" y="284" name="center"/>
  <anchor x="314" y="734" name="top"/>
  <anchor x="491" y="734" name="topright"/>
  <outline>
    <contour>
      <point x="495" y="-187" type="curve" smooth="yes"/>
      <point x="514" y="-187"/>
      <point x="531" y="-182"/>
      <point x="539" y="-178" type="curve"/>
      <point x="539" y="-153" type="line"/>
      <point x="528" y="-158"/>
      <point x="512" y="-162"/>
      <point x="495" y="-162" type="curve" smooth="yes"/>
      <point x="458" y="-162"/>
      <point x="439" y="-142"/>
      <point x="439" y="-89" type="curve" smooth="yes"/>
      <point x="439" y="15" type="line"/>
      <point x="413" y="10" type="line"/>
      <point x="413" y="-92" type="line" smooth="yes"/>
      <point x="413" y="-157"/>
      <point x="439" y="-187"/>
    </contour>
    <component base="i"/>
  </outline>
</glyph>
<glyph name="longshighstroke" format="2">
  <advance width="600"/>
  <unicode hex="1E9D"/>
  <anchor x="275" y="0" name="bottom"/>
  <anchor x="300" y="765" name="top"/>
  <outline>
    <contour>
      <point x="150" y="503" type="line"/>
      <point x="408" y="503" type="line"/>
      <point x="408" y="528" type="line"/>
      <point x="150" y="528" type="line"/>
    </contour>
    <component base="longs"/>
  </outline>
</glyph>
<glyph name="uni1F19" format="2">
  <advance width="600"/>
  <unicode hex="1F19"/>
  <anchor x="343" y="0" name="bottom"/>
  <anchor x="329" y="714" name="top"/>
  <outline>
    <contour>
      <point x="165" y="0" type="line"/>
      <point x="510" y="0" type="line"/>
      <point x="510" y="25" type="line"/>
      <point x="191" y="25" type="line"/>
      <point x="191" y="364" type="line"/>
      <point x="490" y="364" type="line"/>
      <point x="490" y="389" type="line"/>
      <point x="191" y="389" type="line"/>
      <point x="191" y="689" type="line"/>
      <point x="510" y="689" type="line"/>
      <point x="510" y="714" type="line"/>
      <point x="165" y="714" type="line"/>
    </contour>
    <component base="uni1FFE" xOffset="-267" yOffset="-52"/>
  </outline>
</glyph>
<glyph name="uni1F29" format="2">
  <advance width="600"/>
  <unicode hex="1F29"/>
  <anchor x="337" y="0" name="bottom"/>
  <anchor x="337" y="357" name="center"/>
  <anchor x="337" y="714" name="top"/>
  <anchor x="57" y="714" name="topleft"/>
  <outline>
    <contour>
      <point x="165" y="0" type="line"/>
      <point x="191" y="0" type="line"/>
      <point x="191" y="363" type="line"/>
      <point x="479" y="363" type="line"/>
      <point x="479" y="0" type="line"/>
      <point x="505" y="0" type="line"/>
      <point x="505" y="714" type="line"/>
      <point x="479" y="714" type="line"/>
      <point x="479" y="388" type="line"/>
      <point x="191" y="388" type="line"/>
      <point x="191" y="714" type="line"/>
      <point x="165" y="714" type="line"/>
    </contour>
    <component base="uni1FFE" xOffset="-246" yOffset="-48"/>
  </outline>
</glyph>
<glyph name="uni1F3B" format="2">
  <advance width="600"/>
  <unicode hex="1F3B"/>
  <anchor x="375" y="0" name="bottom"/>
  <anchor x="375" y="714" name="top"/>
  <outline>
    <contour>
      <point x="235" y="0" type="line"/>
      <point x="515" y="0" type="line"/>
      <point x="515" y="20" type="line"/>
      <point x="388" y="23" type="line"/>
      <point x="388" y="690" type="line"/>
      <point x="515" y="694" type="line"/>
      <point x="515" y="714" type="line"/>
      <point x="235" y="714" type="line"/>
      <point x="235" y="694" type="line"/>
      <point x="362" y="690" type="line"/>
      <point x="362" y="23" type="line"/>
      <point x="235" y="20" type="line"/>
    </contour>
    <component base="uni1FDD" xOffset="-234" yOffset="-50"/>
  </outline>
</glyph>
<glyph name="uni1F3E" format="2">
  <advance width="600"/>
  <unicode hex="1F3E"/>
  <anchor x="415" y="0" name="bottom"/>
  <anchor x="415" y="714" name="top"/>
  <outline>
    <contour>
      <point x="275" y="0" type="line"/>
      <point x="555" y="0" type="line"/>
      <point x="555" y="20" type="line"/>
      <point x="428" y="23" type="line"/>
      <point x="428" y="690" type="line"/>
      <point x="555" y="694" type="line"/>
      <point x="555" y="714" type="line"/>
      <point x="275" y="714" type="line"/>
      <point x="275" y="694" type="line"/>
      <point x="402" y="690" type="line"/>
      <point x="402" y="23" type="line"/>
      <point x="275" y="20" type="line"/>
    </contour>
    <component base="uni1FCF" xOffset="-172" yOffset="-50"/>
  </outline>
</glyph>
<glyph name="uni1F48" format="2">
  <advance width="600"/>
  <unicode hex="1F48"/>
  <anchor x="325" y="0" name="bottom"/>
  <anchor x="325" y="714" name="top"/>
  <outline>
    <contour>
      <point x="325" y="-10" type="curve" smooth="yes"/>
      <point x="478" y="-10"/>
      <point x="545" y="154"/>
      <point x="545" y="360" type="curve" smooth="yes"/>
      <point x="545" y="579"/>
      <point x="469" y="724"/>
      <point x="327" y="724" type="curve" smooth="yes"/>
      <point x="189" y="724"/>
      <point x="103" y="587"/>
      <point x="103" y="360" type="curve" smooth="yes"/>
      <point x="103" y="138"/>
      <point x="177" y="-10"/>
    </contour>
    <contour>
      <point x="326" y="15" type="curve" smooth="yes"/>
      <point x="199" y="15"/>
      <point x="129" y="151"/>
      <point x="129" y="358" type="curve" smooth="yes"/>
      <point x="129" y="564"/>
      <point x="201" y="699"/>
      <point x="326" y="699" type="curve" smooth="yes"/>
      <point x="446" y="699"/>
      <point x="518" y="576"/>
      <point x="518" y="358" type="curve" smooth="yes"/>
      <point x="518" y="146"/>
      <point x="450" y="15"/>
    </contour>
    <component base="uni1FBD" xOffset="-249" yOffset="-16"/>
  </outline>
</glyph>
<glyph name="uni1F59" format="2">
  <advance width="600"/>
  <unicode hex="1F59"/>
  <anchor x="330" y="0" name="bottom"/>
  <anchor x="330" y="714" name="top"/>
  <outline>
    <contour>
      <point x="317" y="0" type="line"/>
      <point x="343" y="0" type="line"/>
      <point x="343" y="269" type="line"/>
      <point x="553" y="714" type="line"/>
      <point x="525" y="714" type="line"/>
      <point x="330" y="298" type="line"/>
      <point x="130" y="714" type="line"/>
      <point x="103" y="714" type="line"/>
      <point x="317" y="269" type="line"/>
    </contour>
    <component base="uni1FFE" xOffset="-271" yOffset="-50"/>
  </outline>
</glyph>
<glyph name="uni1FC8" format="2">
  <advance width="600"/>
  <unicode hex="1FC8"/>
  <anchor x="340" y="0" name="bottom"/>
  <anchor x="331" y="714" name="top"/>
  <anchor x="35" y="714" name="topleft"/>
  <outline>
    <contour>
      <point x="165" y="0" type="line"/>
      <point x="510" y="0" type="line"/>
      <point x="510" y="25" type="line"/>
      <point x="191" y="25" type="line"/>
      <point x="191" y="364" type="line"/>
      <point x="490" y="364" type="line"/>
      <point x="490" y="389" type="line"/>
      <point x="191" y="389" type="line"/>
      <point x="191" y="689" type="line"/>
      <point x="510" y="689" type="line"/>
      <point x="510" y="714" type="line"/>
      <point x="165" y="714" type="line"/>
    </contour>
    <component base="uni1FEF" xOffset="-211" yOffset="-48"/>
  </outline>
</glyph>
<glyph name="uni1FCA" format="2">
  <advance width="600"/>
  <unicode hex="1FCA"/>
  <anchor x="336" y="0" name="bottom"/>
  <anchor x="336" y="377" name="center"/>
  <anchor x="336" y="714" name="top"/>
  <anchor x="49" y="714" name="topleft"/>
  <outline>
    <contour>
      <point x="165" y="0" type="line"/>
      <point x="191" y="0" type="line"/>
      <point x="191" y="363" type="line"/>
      <point x="479" y="363" type="line"/>
      <point x="479" y="0" type="line"/>
      <point x="505" y="0" type="line"/>
      <point x="505" y="714" type="line"/>
      <point x="479" y="714" type="line"/>
      <point x="479" y="388" type="line"/>
      <point x="191" y="388" type="line"/>
      <point x="191" y="714" type="line"/>
      <point x="165" y="714" type="line"/>
    </contour>
    <component base="uni1FEF" xOffset="-223" yOffset="-50"/>
  </outline>
</glyph>
<glyph name="uni1FDA" format="2">
  <advance width="600"/>
  <unicode hex="1FDA"/>
  <anchor x="337" y="0" name="bottom"/>
  <anchor x="337" y="714" name="top"/>
  <outline>
    <contour>
      <point x="196" y="0" type="line"/>
      <point x="476" y="0" type="line"/>
      <point x="476" y="20" type="line"/>
      <point x="349" y="23" type="line"/>
      <point x="349" y="690" type="line"/>
      <point x="476" y="694" type="line"/>
      <point x="476" y="714" type="line"/>
      <point x="196" y="714" type="line"/>
      <point x="196" y="694" type="line"/>
      <point x="323" y="690" type="line"/>
      <point x="323" y="23" type="line"/>
      <point x="196" y="20" type="line"/>
    </contour>
    <component base="uni1FEF" xOffset="-219" yOffset="-49"/>
  </outline>
</glyph>
<glyph name="uni1FEB" format="2">
  <advance width="600"/>
  <unicode hex="1FEB"/>
  <anchor x="350" y="0" name="bottom"/>
  <anchor x="350" y="714" name="top"/>
  <outline>
    <contour>
      <point x="337" y="0" type="line"/>
      <point x="363" y="0" type="line"/>
      <point x="363" y="269" type="line"/>
      <point x="573" y="714" type="line"/>
      <point x="545" y="714" type="line"/>
      <point x="350" y="298" type="line"/>
      <point x="150" y="714" type="line"/>
      <point x="123" y="714" type="line"/>
      <point x="337" y="269" type="line"/>
    </contour>
    <component base="uni1FFD" xOffset="-294" yOffset="-49"/>
  </outline>
</glyph>
<glyph name="uni1FEF" format="2">
  <advance width="600"/>
  <unicode hex="1FEF"/>
  <anchor x="300" y="528" name="_top"/>
  <anchor x="300" y="763" name="top"/>
  <outline>
    <contour>
      <point x="301" y="606" type="curve"/>
      <point x="318" y="606" type="line"/>
      <point x="318" y="618" type="line"/>
      <point x="296" y="657"/>
      <point x="269" y="717"/>
      <point x="257" y="763" type="curve"/>
      <point x="221" y="763" type="line"/>
      <point x="221" y="753" type="line"/>
      <point x="236" y="713"/>
      <point x="268" y="653"/>
    </contour>
  </outline>
</glyph>
<glyph name="uni1FF8" format="2">
  <advance width="600"/>
  <unicode hex="1FF8"/>
  <anchor x="324" y="0" name="bottom"/>
  <anchor x="324" y="714" name="top"/>
  <outline>
    <contour>
      <point x="325" y="-10" type="curve" smooth="yes"/>
      <point x="478" y="-10"/>
      <point x="545" y="154"/>
      <point x="545" y="360" type="curve" smooth="yes"/>
      <point x="545" y="579"/>
      <point x="469" y="724"/>
      <point x="327" y="724" type="curve" smooth="yes"/>
      <point x="189" y="724"/>
      <point x="103" y="587"/>
      <point x="103" y="360" type="curve" smooth="yes"/>
      <point x="103" y="138"/>
      <point x="177" y="-10"/>
    </contour>
    <contour>
      <point x="326" y="15" type="curve" smooth="yes"/>
      <point x="199" y="15"/>
      <point x="129" y="151"/>
      <point x="129" y="358" type="curve" smooth="yes"/>
      <point x="129" y="564"/>
      <point x="201" y="699"/>
      <point x="326" y="699" type="curve" smooth="yes"/>
      <point x="446" y="699"/>
      <point x="518" y="576"/>
      <point x="518" y="358" type="curve" smooth="yes"/>
      <point x="518" y="146"/>
      <point x="450" y="15"/>
    </contour>
    <component base="uni1FEF" xOffset="-227" yOffset="-50"/>
  </outline>
</glyph>
<glyph name="uni1FFD" format="2">
  <advance width="600"/>
  <unicode hex="1FFD"/>
  <anchor x="300" y="528" name="_top"/>
  <anchor x="300" y="763" name="top"/>
  <outline>
    <contour>
      <point x="287" y="606" type="line"/>
      <point x="304" y="606" type="line"/>
      <point x="337" y="653"/>
      <point x="369" y="713"/>
      <point x="384" y="753" type="curve"/>
      <point x="384" y="763" type="line"/>
      <point x="348" y="763" type="line"/>
      <point x="336" y="717"/>
      <point x="309" y="657"/>
      <point x="287" y="618" type="curve"/>
    </contour>
  </outline>
</glyph>
<glyph name="tironiansignet" format="2">
  <advance width="600"/>
  <unicode hex="204A"/>
  <outline>
    <contour>
      <point x="476" y="0" type="line"/>
      <point x="500" y="0" type="line"/>
      <point x="500" y="527" type="line"/>
      <point x="30" y="527" type="line"/>
      <point x="30" y="504" type="line"/>
      <point x="476" y="504" type="line"/>
    </contour>
  </outline>
</glyph>
<glyph name="plussuperior" format="2">
  <advance width="600"/>
  <unicode hex="207A"/>
  <outline>
    <contour>
      <point x="288" y="341" type="line"/>
      <point x="313" y="341" type="line"/>
      <point x="313" y="447" type="line"/>
      <point x="419" y="447" type="line"/>
      <point x="419" y="472" type="line"/>
      <point x="313" y="472" type="line"/>
      <point x="313" y="579" type="line"/>
      <point x="288" y="579" type="line"/>
      <point x="288" y="472" type="line"/>
      <point x="181" y="472" type="line"/>
      <point x="181" y="447" type="line"/>
      <point x="288" y="447" type="line"/>
    </contour>
  </outline>
</glyph>
<glyph name="equalsuperior" format="2">
  <advance width="600"/>
  <unicode hex="207C"/>
  <outline>
    <contour>
      <point x="181" y="495" type="line"/>
      <point x="419" y="495" type="line"/>
      <point x="419" y="520" type="line"/>
      <point x="181" y="520" type="line"/>
    </contour>
    <contour>
      <point x="181" y="401" type="line"/>
      <point x="419" y="401" type="line"/>
      <point x="419" y="426" type="line" smooth="yes"/>
      <point x="181" y="426" type="line"/>
    </contour>
  </outline>
</glyph>
<glyph name="parenleftsuperior" format="2">
  <advance width="600"/>
  <unicode hex="207D"/>
  <outline>
    <contour>
      <point x="329" y="241" type="curve"/>
      <point x="364" y="241" type="line"/>
      <point x="298" y="309"/>
      <point x="261" y="385"/>
      <point x="261" y="501" type="curve" smooth="yes"/>
      <point x="261" y="614"/>
      <point x="302" y="691"/>
      <point x="365" y="756" type="curve"/>
      <point x="329" y="756" type="line"/>
      <point x="272" y="692"/>
      <point x="234" y="619"/>
      <point x="234" y="501" type="curve" smooth="yes"/>
      <point x="234" y="379"/>
      <point x="272" y="303"/>
    </contour>
  </outline>
</glyph>
<glyph name="parenrightsuperior" format="2">
  <advance width="600"/>
  <unicode hex="207E"/>
  <outline>
    <contour>
      <point x="234" y="241" type="curve"/>
      <point x="270" y="241" type="line"/>
      <point x="327" y="305"/>
      <point x="365" y="378"/>
      <point x="365" y="496" type="curve" smooth="yes"/>
      <point x="365" y="618"/>
      <point x="327" y="694"/>
      <point x="270" y="756" type="curve"/>
      <point x="235" y="756" type="line"/>
      <point x="301" y="688"/>
      <point x="338" y="612"/>
      <point x="338" y="496" type="curve" smooth="yes"/>
      <point x="338" y="383"/>
      <point x="297" y="306"/>
    </contour>
  </outline>
</glyph>
<glyph name="uni20A1" format="2">
  <advance width="600"/>
  <unicode hex="20A1"/>
  <anchor x="347" y="0" name="bottom"/>
  <anchor x="360" y="714" name="top"/>
  <anchor x="580" y="714" name="topright"/>
  <outline>
    <contour>
      <point x="301" y="-58" type="line"/>
      <point x="327" y="-58" type="line"/>
      <point x="498" y="760" type="line"/>
      <point x="472" y="760" type="line"/>
    </contour>
    <contour>
      <point x="164" y="-58" type="line"/>
      <point x="190" y="-58" type="line"/>
      <point x="361" y="760" type="line"/>
      <point x="335" y="760" type="line"/>
    </contour>
    <component base="C"/>
  </outline>
</glyph>
<glyph name="uni20A5" format="2">
  <advance width="600"/>
  <unicode hex="20A5"/>
  <anchor x="303" y="0" name="bottom"/>
  <anchor x="311" y="528" name="top"/>
  <anchor x="580" y="528" name="topright"/>
  <outline>
    <contour>
      <point x="109" y="-110" type="line"/>
      <point x="135" y="-110" type="line"/>
      <point x="503" y="667" type="line"/>
      <point x="477" y="667" type="line"/>
    </contour>
    <component base="m"/>
  </outline>
</glyph>
<glyph name="uni20AE" format="2">
  <advance width="600"/>
  <unicode hex="20AE"/>
  <anchor x="299" y="0" name="bottom"/>
  <anchor x="300" y="357" name="center"/>
  <anchor x="300" y="714" name="top"/>
  <anchor x="580" y="714" name="topright"/>
  <outline>
    <contour>
      <point x="125" y="342" type="line"/>
      <point x="472" y="585" type="line"/>
      <point x="458" y="605" type="line"/>
      <point x="111" y="362" type="line"/>
    </contour>
    <contour>
      <point x="125" y="141" type="line"/>
      <point x="472" y="384" type="line"/>
      <point x="458" y="404" type="line"/>
      <point x="111" y="161" type="line"/>
    </contour>
    <component base="T"/>
  </outline>
</glyph>
<glyph name="uni20B2" format="2">
  <advance width="600"/>
  <unicode hex="20B2"/>
  <anchor x="330" y="0" name="bottom"/>
  <anchor x="326" y="714" name="top"/>
  <anchor x="580" y="714" name="topright"/>
  <outline>
    <contour>
      <point x="308" y="-90" type="line"/>
      <point x="334" y="-90" type="line"/>
      <point x="334" y="787" type="line"/>
      <point x="308" y="787" type="line"/>
    </contour>
    <component base="G"/>
  </outline>
</glyph>
<glyph name="uni20B3" format="2">
  <advance width="600"/>
  <unicode hex="20B3"/>
  <anchor x="300" y="714" name="bottom"/>
  <anchor x="300" y="0" name="top"/>
  <anchor x="20" y="0" name="topright"/>
  <outline>
    <contour>
      <point x="21" y="389" type="line"/>
      <point x="579" y="389" type="line"/>
      <point x="579" y="414" type="line"/>
      <point x="21" y="414" type="line"/>
    </contour>
    <contour>
      <point x="21" y="219" type="line"/>
      <point x="579" y="219" type="line"/>
      <point x="579" y="244" type="line"/>
      <point x="21" y="244" type="line"/>
    </contour>
    <component base="V" xScale="-1" yScale="-1" xOffset="600" yOffset="714"/>
  </outline>
</glyph>
<glyph name="uni20B5" format="2">
  <advance width="600"/>
  <unicode hex="20B5"/>
  <anchor x="347" y="0" name="bottom"/>
  <anchor x="360" y="714" name="top"/>
  <anchor x="580" y="714" name="topright"/>
  <outline>
    <contour>
      <point x="356" y="-90" type="line"/>
      <point x="382" y="-90" type="line"/>
      <point x="382" y="787" type="line"/>
      <point x="356" y="787" type="line"/>
    </contour>
    <component base="C"/>
  </outline>
</glyph>
<glyph name="accountof" format="2">
  <advance width="600"/>
  <unicode hex="2100"/>
  <anchor x="128" y="398" name="bottom"/>
  <anchor x="132" y="722" name="top"/>
  <outline>
    <contour>
      <point x="511" y="-15" type="curve" smooth="yes"/>
      <point x="544" y="-15"/>
      <point x="578" y="-8"/>
      <point x="600" y="1" type="curve"/>
      <point x="600" y="28" type="line"/>
      <point x="573" y="17"/>
      <point x="543" y="10"/>
      <point x="512" y="10" type="curve" smooth="yes"/>
      <point x="425" y="10"/>
      <point x="387" y="66"/>
      <point x="387" y="143" type="curve" smooth="yes"/>
      <point x="387" y="234"/>
      <point x="425" y="291"/>
      <point x="512" y="291" type="curve" smooth="yes"/>
      <point x="540" y="291"/>
      <point x="561" y="287"/>
      <point x="590" y="275" type="curve"/>
      <point x="597" y="300" type="line"/>
      <point x="571" y="310"/>
      <point x="543" y="316"/>
      <point x="513" y="316" type="curve" smooth="yes"/>
      <point x="407" y="316"/>
      <point x="360" y="245"/>
      <point x="360" y="143" type="curve" smooth="yes"/>
      <point x="360" y="49"/>
      <point x="411" y="-15"/>
    </contour>
    <component base="ordfeminine" xOffset="-174"/>
    <component base="fraction" xOffset="324"/>
  </outline>
</glyph>
<glyph name="planckconstantovertwopi" format="2">
  <advance width="600"/>
  <unicode hex="210F"/>
  <outline>
    <contour>
      <point x="114" y="630" type="line"/>
      <point x="465" y="630" type="line"/>
      <point x="469" y="655" type="line"/>
      <point x="119" y="655" type="line"/>
    </contour>
    <component base="planckconstant"/>
  </outline>
</glyph>
<glyph name="versicle" format="2">
  <advance width="600"/>
  <unicode hex="2123"/>
  <anchor x="300" y="0" name="bottom"/>
  <anchor x="300" y="714" name="top"/>
  <anchor x="580" y="714" name="topright"/>
  <outline>
    <contour>
      <point x="84" y="-145" type="line"/>
      <point x="123" y="-145" type="line"/>
      <point x="460" y="787" type="line"/>
      <point x="200" y="844" type="line"/>
      <point x="192" y="810" type="line"/>
      <point x="413" y="762" type="line"/>
    </contour>
    <component base="V"/>
  </outline>
</glyph>
<glyph name="notequal" format="2">
  <advance width="600"/>
  <unicode hex="2260"/>
  <outline>
    <contour>
      <point x="188" y="94" type="line"/>
      <point x="433" y="608" type="line"/>
      <point x="409" y="619" type="line"/>
      <point x="165" y="105" type="line"/>
    </contour>
    <component base="equal"/>
  </outline>
</glyph>
<glyph name="APLsquishquad" format="2">
  <advance width="600"/>
  <unicode hex="2337"/>
  <outline>
    <contour>
      <point x="145" y="-79" type="line"/>
      <point x="455" y="-79" type="line"/>
      <point x="455" y="793" type="line"/>
      <point x="145" y="793" type="line"/>
    </contour>
    <contour>
      <point x="171" y="-53" type="line"/>
      <point x="171" y="767" type="line"/>
      <point x="429" y="767" type="line"/>
      <point x="429" y="-53" type="line"/>
    </contour>
  </outline>
</glyph>
<glyph name="horizontalscanline-7" format="2">
  <advance width="600"/>
  <unicode hex="23BC"/>
  <outline>
    <contour>
      <point x="-5" y="235" type="line"/>
      <point x="605" y="235" type="line"/>
      <point x="605" y="260" type="line"/>
      <point x="-5" y="260" type="line"/>
    </contour>
  </outline>
</glyph>
<glyph name="uni2C61" format="2">
  <advance width="600"/>
  <unicode hex="2C61"/>
  <anchor x="300" y="0" name="bottom"/>
  <anchor x="300" y="760" name="top"/>
  <outline>
    <contour>
      <point x="287" y="0" type="line"/>
      <point x="313" y="0" type="line"/>
      <point x="313" y="252" type="line"/>
      <point x="398" y="252" type="line"/>
      <point x="398" y="277" type="line"/>
      <point x="313" y="277" type="line"/>
      <point x="313" y="438" type="line"/>
      <point x="398" y="438" type="line"/>
      <point x="398" y="463" type="line"/>
      <point x="313" y="463" type="line"/>
      <point x="313" y="760" type="line"/>
      <point x="287" y="760" type="line"/>
      <point x="287" y="463" type="line"/>
      <point x="201" y="463" type="line"/>
      <point x="201" y="438" type="line"/>
      <point x="287" y="438" type="line"/>
      <point x="287" y="277" type="line"/>
      <point x="201" y="277" type="line"/>
      <point x="201" y="252" type="line"/>
      <point x="287" y="252" type="line"/>
    </contour>
  </outline>
</glyph>
<glyph name="uni2C66" format="2">
  <advance width="600"/>
  <unicode hex="2C66"/>
  <anchor x="300" y="-213" name="bottom"/>
  <anchor x="300" y="760" name="top"/>
  <anchor x="267" y="264" name="center"/>
  <anchor x="580" y="659" name="topright"/>
  <outline>
    <contour>
      <point x="24" y="-213" type="line"/>
      <point x="50" y="-213" type="line"/>
      <point x="376" y="760" type="line"/>
      <point x="350" y="760" type="line"/>
    </contour>
    <component base="t"/>
  </outline>
</glyph>
<glyph name="uni2C68" format="2">
  <advance width="600"/>
  <unicode hex="2C68"/>
  <anchor x="300" y="-189" name="bottom"/>
  <anchor x="300" y="264" name="center"/>
  <anchor x="116" y="760" name="top"/>
  <anchor x="580" y="760" name="topright"/>
  <outline>
    <contour>
      <point x="530" y="-176" type="line"/>
      <point x="556" y="-176" type="line"/>
      <point x="556" y="25" type="line"/>
      <point x="476" y="25" type="line"/>
      <point x="476" y="0" type="line"/>
      <point x="530" y="0" type="line"/>
    </contour>
    <component base="h"/>
  </outline>
</glyph>
<glyph name="uni2C6A" format="2">
  <advance width="600"/>
  <unicode hex="2C6A"/>
  <anchor x="300" y="-189" name="bottom"/>
  <anchor x="340" y="760" name="top"/>
  <anchor x="580" y="760" name="topright"/>
  <outline>
    <contour>
      <point x="520" y="-175" type="line"/>
      <point x="545" y="-175" type="line"/>
      <point x="545" y="25" type="line"/>
      <point x="502" y="25" type="line"/>
      <point x="520" y="0" type="line"/>
    </contour>
    <component base="k"/>
  </outline>
</glyph>
<glyph name="uni2C6B" format="2">
  <advance width="600"/>
  <unicode hex="2C6B"/>
  <anchor x="312" y="-190" name="bottom"/>
  <anchor x="312" y="714" name="top"/>
  <anchor x="580" y="714" name="topright"/>
  <outline>
    <contour>
      <point x="470" y="-175" type="line"/>
      <point x="495" y="-175" type="line"/>
      <point x="495" y="25" type="line"/>
      <point x="453" y="25" type="line"/>
      <point x="470" y="0" type="line"/>
    </contour>
    <component base="Z"/>
  </outline>
</glyph>
<glyph name="uni2C7E" format="2">
  <advance width="600"/>
  <unicode hex="2C7E"/>
  <anchor x="300" y="0" name="bottom"/>
  <anchor x="321" y="714" name="top"/>
  <anchor x="580" y="714" name="topright"/>
  <outline>
    <contour>
      <point x="351" y="-208" type="curve" smooth="yes"/>
      <point x="383" y="-208"/>
      <point x="407" y="-200"/>
      <point x="422" y="-194" type="curve"/>
      <point x="422" y="-169" type="line"/>
      <point x="406" y="-176"/>
      <point x="382" y="-183"/>
      <point x="354" y="-183" type="curve" smooth="yes"/>
      <point x="290" y="-183"/>
      <point x="271" y="-146"/>
      <point x="242" y="-84" type="curve" smooth="yes"/>
      <point x="223" y="-44"/>
      <point x="207" y="-17"/>
      <point x="186" y="-1" type="curve"/>
      <point x="90" y="20" type="line"/>
      <point x="175" y="-6"/>
      <point x="189" y="-35"/>
      <point x="218" y="-95" type="curve" smooth="yes"/>
      <point x="249" y="-160"/>
      <point x="273" y="-208"/>
    </contour>
    <component base="S"/>
  </outline>
</glyph>
<glyph name="editorialcoronis" format="2">
  <advance width="600"/>
  <unicode hex="2E0E"/>
  <outline>
    <contour>
      <point x="307" y="291" type="curve" smooth="yes"/>
      <point x="341" y="291"/>
      <point x="369" y="319"/>
      <point x="369" y="353" type="curve" smooth="yes"/>
      <point x="369" y="362"/>
      <point x="366" y="371"/>
      <point x="363" y="379" type="curve"/>
      <point x="806" y="379" type="line"/>
      <point x="806" y="418" type="line"/>
      <point x="363" y="418" type="line"/>
      <point x="366" y="426"/>
      <point x="369" y="435"/>
      <point x="369" y="444" type="curve" smooth="yes"/>
      <point x="369" y="478"/>
      <point x="341" y="506"/>
      <point x="307" y="506" type="curve" smooth="yes"/>
      <point x="273" y="506"/>
      <point x="245" y="478"/>
      <point x="245" y="444" type="curve" smooth="yes"/>
      <point x="245" y="435"/>
      <point x="247" y="426"/>
      <point x="251" y="418" type="curve"/>
      <point x="-206" y="418" type="line"/>
      <point x="-206" y="379" type="line"/>
      <point x="251" y="379" type="line"/>
      <point x="247" y="371"/>
      <point x="245" y="362"/>
      <point x="245" y="353" type="curve" smooth="yes"/>
      <point x="245" y="319"/>
      <point x="273" y="291"/>
    </contour>
    <contour>
      <point x="249" y="-282" type="line"/>
      <point x="315" y="-265"/>
      <point x="349" y="-231"/>
      <point x="349" y="-182" type="curve" smooth="yes"/>
      <point x="349" y="-145"/>
      <point x="329" y="-119"/>
      <point x="297" y="-119" type="curve" smooth="yes"/>
      <point x="272" y="-119"/>
      <point x="256" y="-133"/>
      <point x="256" y="-158" type="curve" smooth="yes"/>
      <point x="256" y="-193"/>
      <point x="297" y="-184"/>
      <point x="297" y="-210" type="curve" smooth="yes"/>
      <point x="297" y="-228"/>
      <point x="281" y="-244"/>
      <point x="249" y="-256" type="curve"/>
    </contour>
    <contour>
      <point x="216" y="-41" type="line"/>
      <point x="398" y="-41" type="line"/>
      <point x="398" y="-1" type="line"/>
      <point x="216" y="-1" type="line"/>
    </contour>
    <contour>
      <point x="80" y="91" type="line"/>
      <point x="534" y="91" type="line"/>
      <point x="534" y="131" type="line"/>
      <point x="80" y="131" type="line"/>
    </contour>
    <contour>
      <point x="-56" y="233" type="line"/>
      <point x="670" y="233" type="line"/>
      <point x="670" y="273" type="line"/>
      <point x="-56" y="273" type="line"/>
    </contour>
    <contour>
      <point x="307" y="320" type="curve" smooth="yes"/>
      <point x="288" y="320"/>
      <point x="274" y="336"/>
      <point x="274" y="353" type="curve" smooth="yes"/>
      <point x="274" y="363"/>
      <point x="278" y="373"/>
      <point x="285" y="379" type="curve"/>
      <point x="328" y="379" type="line"/>
      <point x="336" y="373"/>
      <point x="340" y="363"/>
      <point x="340" y="353" type="curve" smooth="yes"/>
      <point x="340" y="334"/>
      <point x="326" y="320"/>
    </contour>
    <contour>
      <point x="286" y="418" type="line"/>
      <point x="278" y="424"/>
      <point x="274" y="434"/>
      <point x="274" y="444" type="curve" smooth="yes"/>
      <point x="274" y="463"/>
      <point x="288" y="477"/>
      <point x="307" y="477" type="curve" smooth="yes"/>
      <point x="326" y="477"/>
      <point x="340" y="463"/>
      <point x="340" y="444" type="curve" smooth="yes"/>
      <point x="340" y="433"/>
      <point x="336" y="424"/>
      <point x="328" y="418" type="curve"/>
    </contour>
    <contour>
      <point x="-56" y="524" type="line"/>
      <point x="670" y="524" type="line"/>
      <point x="670" y="564" type="line"/>
      <point x="-56" y="564" type="line"/>
    </contour>
    <contour>
      <point x="80" y="666" type="line"/>
      <point x="534" y="666" type="line"/>
      <point x="534" y="706" type="line"/>
      <point x="80" y="706" type="line"/>
    </contour>
    <contour>
      <point x="216" y="798" type="line"/>
      <point x="398" y="798" type="line"/>
      <point x="398" y="838" type="line"/>
      <point x="216" y="838" type="line"/>
    </contour>
    <contour>
      <point x="300" y="895" type="curve" smooth="yes"/>
      <point x="325" y="895"/>
      <point x="340" y="909"/>
      <point x="340" y="934" type="curve" smooth="yes"/>
      <point x="340" y="969"/>
      <point x="300" y="960"/>
      <point x="300" y="986" type="curve" smooth="yes"/>
      <point x="300" y="1004"/>
      <point x="317" y="1020"/>
      <point x="349" y="1032" type="curve"/>
      <point x="349" y="1058" type="line"/>
      <point x="283" y="1041"/>
      <point x="249" y="1007"/>
      <point x="249" y="958" type="curve" smooth="yes"/>
      <point x="249" y="921"/>
      <point x="268" y="895"/>
    </contour>
  </outline>
</glyph>
<glyph name="tildedotbelow" format="2">
  <advance width="600"/>
  <unicode hex="2E1F"/>
  <outline>
    <contour>
      <point x="306" y="186" type="curve" smooth="yes"/>
      <point x="322" y="186"/>
      <point x="330" y="203"/>
      <point x="330" y="226" type="curve" smooth="yes"/>
      <point x="330" y="250"/>
      <point x="322" y="267"/>
      <point x="306" y="267" type="curve" smooth="yes"/>
      <point x="289" y="267"/>
      <point x="284" y="251"/>
      <point x="284" y="226" type="curve" smooth="yes"/>
      <point x="284" y="199"/>
      <point x="289" y="186"/>
    </contour>
    <component base="asciitilde"/>
  </outline>
</glyph>
<glyph name="brackhalftopright" format="2">
  <advance width="600"/>
  <unicode hex="2E23"/>
  <outline>
    <contour>
      <point x="200" y="-158" type="line"/>
      <point x="400" y="-158" type="line"/>
      <point x="400" y="276" type="line"/>
      <point x="375" y="276" type="line"/>
      <point x="375" y="-133" type="line"/>
      <point x="200" y="-133" type="line"/>
    </contour>
  </outline>
</glyph>
<glyph name="uni2E44" format="2">
  <advance width="600"/>
  <unicode hex="2E44"/>
  <outline>
    <contour>
      <point x="204" y="541" type="line"/>
      <point x="408" y="740" type="line"/>
      <point x="388" y="755" type="line"/>
      <point x="191" y="555" type="line"/>
    </contour>
    <contour>
      <point x="204" y="-33" type="line"/>
      <point x="408" y="166" type="line"/>
      <point x="388" y="181" type="line"/>
      <point x="191" y="-19" type="line"/>
    </contour>
  </outline>
</glyph>
<glyph name="uniA642" format="2">
  <advance width="600"/>
  <unicode hex="A642"/>
  <outline>
    <contour>
      <point x="137" y="341" type="line"/>
      <point x="459" y="341" type="line"/>
      <point x="459" y="366" type="line"/>
      <point x="137" y="366" type="line"/>
    </contour>
    <component base="uniA640"/>
  </outline>
</glyph>
<glyph name="uniA65C" format="2">
  <advance width="1200"/>
  <unicode hex="A65C"/>
  <outline>
    <contour>
      <point x="478" y="0" type="line"/>
      <point x="1098" y="0" type="line"/>
      <point x="1098" y="25" type="line"/>
      <point x="478" y="25" type="line"/>
    </contour>
    <component base="uniA656"/>
  </outline>
</glyph>
<glyph name="uniA65D" format="2">
  <advance width="1200"/>
  <unicode hex="A65D"/>
  <outline>
    <contour>
      <point x="254" y="0" type="line"/>
      <point x="280" y="0" type="line"/>
      <point x="280" y="264" type="line"/>
      <point x="644" y="264" type="line"/>
      <point x="644" y="289" type="line"/>
      <point x="280" y="289" type="line"/>
      <point x="280" y="528" type="line"/>
      <point x="254" y="528" type="line"/>
    </contour>
    <component base="uniA659" xOffset="450"/>
  </outline>
</glyph>
<glyph name="uniA66A" format="2">
  <advance width="600"/>
  <unicode hex="A66A"/>
  <anchor x="300" y="0" name="bottom"/>
  <anchor x="300" y="357" name="center"/>
  <anchor x="302" y="10" name="ogonek"/>
  <anchor x="300" y="714" name="top"/>
  <anchor x="20" y="714" name="topleft"/>
  <anchor x="580" y="714" name="topright"/>
  <outline>
    <contour>
      <point x="301" y="-10" type="curve" smooth="yes"/>
      <point x="488" y="-10"/>
      <point x="565" y="154"/>
      <point x="565" y="360" type="curve" smooth="yes"/>
      <point x="565" y="579"/>
      <point x="478" y="724"/>
      <point x="303" y="724" type="curve" smooth="yes"/>
      <point x="132" y="724"/>
      <point x="35" y="587"/>
      <point x="35" y="360" type="curve" smooth="yes"/>
      <point x="35" y="158"/>
      <point x="112" y="-10"/>
    </contour>
    <contour>
      <point x="302" y="15" type="curve" smooth="yes"/>
      <point x="142" y="15"/>
      <point x="61" y="151"/>
      <point x="61" y="358" type="curve" smooth="yes"/>
      <point x="61" y="564"/>
      <point x="144" y="699"/>
      <point x="302" y="699" type="curve" smooth="yes"/>
      <point x="455" y="699"/>
      <point x="538" y="576"/>
      <point x="538" y="358" type="curve" smooth="yes"/>
      <point x="538" y="146"/>
      <point x="459" y="15"/>
    </contour>
    <component base="period" xScale="0.88" yScale="1.056" xOffset="113" yOffset="333"/>
    <component base="period" xScale="0.88" yScale="1.056" xOffset="-47" yOffset="333"/>
  </outline>
</glyph>
<glyph name="uniA680" format="2">
  <advance width="600"/>
  <unicode hex="A680"/>
  <anchor x="305" y="-175" name="bottom"/>
  <anchor x="385" y="714" name="top"/>
  <outline>
    <contour>
      <point x="269" y="692" type="line"/>
      <point x="295" y="692" type="line"/>
      <point x="295" y="920" type="line"/>
      <point x="269" y="920" type="line"/>
    </contour>
    <component base="afii10021" xOffset="5"/>
  </outline>
</glyph>
<glyph name="uniA684" format="2">
  <advance width="1200"/>
  <unicode hex="A684"/>
  <anchor x="300" y="0" name="bottom_1"/>
  <anchor x="915" y="0" name="bottom_2"/>
  <anchor x="1180" y="0" name="bottomright"/>
  <anchor x="300" y="714" name="top_1"/>
  <anchor x="900" y="714" name="top_2"/>
  <outline>
    <contour>
      <point x="222" y="359" type="line"/>
      <point x="712" y="359" type="line"/>
      <point x="712" y="384" type="line"/>
      <point x="222" y="384" type="line"/>
    </contour>
    <component base="afii10025"/>
    <component base="afii10028" xOffset="600"/>
  </outline>
</glyph>
<glyph name="uniA69E" format="2">
  <unicode hex="A69E"/>
  <outline>
    <contour>
      <point x="-13" y="126" type="line"/>
      <point x="13" y="126" type="line"/>
      <point x="13" y="270" type="line"/>
      <point x="111" y="275"/>
      <point x="169" y="342"/>
      <point x="169" y="448" type="curve" smooth="yes"/>
      <point x="169" y="552"/>
      <point x="112" y="618"/>
      <point x="13" y="623" type="curve"/>
      <point x="13" y="764" type="line"/>
      <point x="-13" y="764" type="line"/>
      <point x="-13" y="623" type="line"/>
      <point x="-111" y="617"/>
      <point x="-169" y="553"/>
      <point x="-169" y="448" type="curve" smooth="yes"/>
      <point x="-169" y="342"/>
      <point x="-111" y="273"/>
      <point x="-13" y="270" type="curve"/>
    </contour>
    <contour>
      <point x="-13" y="295" type="line"/>
      <point x="-97" y="297"/>
      <point x="-142" y="359"/>
      <point x="-142" y="448" type="curve" smooth="yes"/>
      <point x="-142" y="537"/>
      <point x="-100" y="594"/>
      <point x="-13" y="598" type="curve"/>
    </contour>
    <contour>
      <point x="13" y="295" type="curve"/>
      <point x="13" y="598" type="line"/>
      <point x="98" y="594"/>
      <point x="142" y="535"/>
      <point x="142" y="448" type="curve" smooth="yes"/>
      <point x="142" y="361"/>
      <point x="96" y="298"/>
    </contour>
  </outline>
</glyph>
<glyph name="uniA71B" format="2">
  <advance width="600"/>
  <unicode hex="A71B"/>
  <outline>
    <contour>
      <point x="289" y="626" type="line"/>
      <point x="311" y="626" type="line"/>
      <point x="311" y="756" type="line"/>
      <point x="382" y="756" type="line"/>
      <point x="300" y="882" type="line"/>
      <point x="218" y="756" type="line"/>
      <point x="289" y="756" type="line"/>
    </contour>
  </outline>
</glyph>
<glyph name="uniA726" format="2">
  <advance width="600"/>
  <unicode hex="A726"/>
  <anchor x="300" y="0" name="bottom"/>
  <anchor x="300" y="377" name="center"/>
  <anchor x="300" y="714" name="top"/>
  <anchor x="20" y="714" name="topleft"/>
  <anchor x="600" y="714" name="topright"/>
  <outline>
    <contour>
      <point x="401" y="-183" type="curve" smooth="yes"/>
      <point x="470" y="-183"/>
      <point x="505" y="-142"/>
      <point x="505" y="-65" type="curve" smooth="yes"/>
      <point x="505" y="40" type="line"/>
      <point x="479" y="44" type="line"/>
      <point x="479" y="-58" type="line" smooth="yes"/>
      <point x="479" y="-127"/>
      <point x="453" y="-158"/>
      <point x="399" y="-158" type="curve" smooth="yes"/>
      <point x="377" y="-158"/>
      <point x="362" y="-154"/>
      <point x="346" y="-148" type="curve"/>
      <point x="346" y="-173" type="line"/>
      <point x="360" y="-179"/>
      <point x="378" y="-183"/>
    </contour>
    <component base="H"/>
  </outline>
</glyph>
<glyph name="uniA728" format="2">
  <advance width="1200"/>
  <unicode hex="A728"/>
  <anchor x="426" y="0" name="bottom"/>
  <anchor x="427" y="357" name="center"/>
  <anchor x="427" y="714" name="top"/>
  <anchor x="707" y="714" name="topright"/>
  <outline>
    <contour>
      <point x="718" y="-241" type="curve" smooth="yes"/>
      <point x="874" y="-241"/>
      <point x="961" y="-160"/>
      <point x="961" y="-32" type="curve" smooth="yes"/>
      <point x="961" y="106"/>
      <point x="874" y="166"/>
      <point x="691" y="166" type="curve"/>
      <point x="948" y="462" type="line"/>
      <point x="948" y="483" type="line"/>
      <point x="423" y="483" type="line"/>
      <point x="423" y="458" type="line"/>
      <point x="912" y="458" type="line"/>
      <point x="659" y="166" type="line"/>
      <point x="659" y="141" type="line"/>
      <point x="710" y="141" type="line" smooth="yes"/>
      <point x="861" y="141"/>
      <point x="934" y="85"/>
      <point x="934" y="-32" type="curve" smooth="yes"/>
      <point x="934" y="-148"/>
      <point x="856" y="-216"/>
      <point x="718" y="-216" type="curve" smooth="yes"/>
      <point x="644" y="-216"/>
      <point x="569" y="-197"/>
      <point x="517" y="-167" type="curve"/>
      <point x="517" y="-197" type="line"/>
      <point x="567" y="-224"/>
      <point x="637" y="-241"/>
    </contour>
    <component base="T" xOffset="127"/>
  </outline>
</glyph>
<glyph name="uniA72B" format="2">
  <advance width="600"/>
  <unicode hex="A72B"/>
  <outline>
    <contour>
      <point x="325" y="-240" type="curve" smooth="yes"/>
      <point x="428" y="-240"/>
      <point x="496" y="-215"/>
      <point x="530" y="-199" type="curve"/>
      <point x="530" y="-171" type="line"/>
      <point x="485" y="-193"/>
      <point x="424" y="-215"/>
      <point x="328" y="-215" type="curve" smooth="yes"/>
      <point x="181" y="-215"/>
      <point x="107" y="-159"/>
      <point x="107" y="-47" type="curve" smooth="yes"/>
      <point x="107" y="69"/>
      <point x="191" y="126"/>
      <point x="368" y="126" type="curve" smooth="yes"/>
      <point x="418" y="126" type="line"/>
      <point x="418" y="150" type="line"/>
      <point x="126" y="390" type="line"/>
      <point x="330" y="512" type="line"/>
      <point x="388" y="511"/>
      <point x="456" y="484"/>
      <point x="498" y="434" type="curve"/>
      <point x="517" y="452" type="line"/>
      <point x="473" y="504"/>
      <point x="396" y="537"/>
      <point x="324" y="537" type="curve"/>
      <point x="100" y="403" type="line"/>
      <point x="100" y="378" type="line"/>
      <point x="377" y="151" type="line"/>
      <point x="195" y="151"/>
      <point x="80" y="97"/>
      <point x="80" y="-50" type="curve" smooth="yes"/>
      <point x="80" y="-175"/>
      <point x="166" y="-240"/>
    </contour>
  </outline>
</glyph>
<glyph name="uniA73C" format="2">
  <advance width="1200"/>
  <unicode hex="A73C"/>
  <outline>
    <contour>
      <point x="555" y="-215" type="curve" smooth="yes"/>
      <point x="652" y="-215"/>
      <point x="702" y="-154"/>
      <point x="748" y="-34" type="curve" smooth="yes"/>
      <point x="761" y="0" type="line"/>
      <point x="734" y="0" type="line"/>
      <point x="724" y="-26" type="line" smooth="yes"/>
      <point x="684" y="-129"/>
      <point x="649" y="-190"/>
      <point x="554" y="-190" type="curve" smooth="yes"/>
      <point x="523" y="-190"/>
      <point x="497" y="-184"/>
      <point x="474" y="-173" type="curve"/>
      <point x="474" y="-200" type="line"/>
      <point x="492" y="-208"/>
      <point x="516" y="-215"/>
    </contour>
    <component base="uniA738"/>
  </outline>
</glyph>
<glyph name="uniA741" format="2">
  <advance width="600"/>
  <unicode hex="A741"/>
  <anchor x="334" y="0" name="bottom"/>
  <anchor x="340" y="760" name="top"/>
  <anchor x="580" y="760" name="topright"/>
  <outline>
    <contour>
      <point x="0" y="632" type="line"/>
      <point x="312" y="632" type="line"/>
      <point x="312" y="657" type="line"/>
      <point x="0" y="657" type="line"/>
    </contour>
    <component base="k"/>
  </outline>
</glyph>
<glyph name="uniA74B" format="2">
  <advance width="600"/>
  <unicode hex="A74B"/>
  <anchor x="300" y="0" name="bottom"/>
  <anchor x="300" y="264" name="center"/>
  <anchor x="300" y="10" name="ogonek"/>
  <anchor x="300" y="528" name="top"/>
  <anchor x="580" y="528" name="topright"/>
  <outline>
    <contour>
      <point x="0" y="254" type="line"/>
      <point x="600" y="254" type="line"/>
      <point x="600" y="278" type="line"/>
      <point x="0" y="278" type="line"/>
    </contour>
    <component base="o"/>
  </outline>
</glyph>
<glyph name="uniA751" format="2">
  <advance width="600"/>
  <unicode hex="A751"/>
  <anchor x="320" y="-240" name="bottom"/>
  <anchor x="320" y="528" name="top"/>
  <anchor x="580" y="528" name="topright"/>
  <outline>
    <contour>
      <point x="0" y="-126" type="line"/>
      <point x="329" y="-126" type="line"/>
      <point x="329" y="-101" type="line"/>
      <point x="0" y="-101" type="line"/>
    </contour>
    <component base="p"/>
  </outline>
</glyph>
<glyph name="uniA757" format="2">
  <advance width="600"/>
  <unicode hex="A757"/>
  <anchor x="290" y="-240" name="bottom"/>
  <anchor x="290" y="528" name="top"/>
  <anchor x="580" y="528" name="topright"/>
  <outline>
    <contour>
      <point x="271" y="-126" type="line"/>
      <point x="600" y="-126" type="line"/>
      <point x="600" y="-101" type="line"/>
      <point x="271" y="-101" type="line"/>
    </contour>
    <component base="q"/>
  </outline>
</glyph>
<glyph name="uniA758" format="2">
  <advance width="600"/>
  <unicode hex="A758"/>
  <anchor x="300" y="-210" name="bottom"/>
  <anchor x="300" y="357" name="center"/>
  <anchor x="302" y="10" name="ogonek"/>
  <anchor x="300" y="714" name="top"/>
  <anchor x="20" y="714" name="topleft"/>
  <anchor x="600" y="714" name="topright"/>
  <outline>
    <contour>
      <point x="164" y="-240" type="line"/>
      <point x="580" y="41" type="line" smooth="yes"/>
      <point x="643" y="84"/>
      <point x="690" y="126"/>
      <point x="690" y="197" type="curve" smooth="yes"/>
      <point x="690" y="275"/>
      <point x="631" y="306"/>
      <point x="572" y="307" type="curve"/>
      <point x="572" y="282" type="line"/>
      <point x="627" y="282"/>
      <point x="664" y="253"/>
      <point x="664" y="197" type="curve" smooth="yes"/>
      <point x="664" y="140"/>
      <point x="628" y="101"/>
      <point x="569" y="61" type="curve" smooth="yes"/>
      <point x="152" y="-219" type="line"/>
    </contour>
    <component base="Q"/>
  </outline>
</glyph>
<glyph name="uniA75C" format="2">
  <advance width="600"/>
  <unicode hex="A75C"/>
  <outline>
    <contour>
      <point x="54" y="138" type="line"/>
      <point x="563" y="138" type="line"/>
      <point x="563" y="163" type="line"/>
      <point x="98" y="163" type="line"/>
      <point x="98" y="165" type="line"/>
      <point x="307" y="325" type="line" smooth="yes"/>
      <point x="405" y="400"/>
      <point x="470" y="454"/>
      <point x="470" y="558" type="curve" smooth="yes"/>
      <point x="470" y="660"/>
      <point x="408" y="724"/>
      <point x="280" y="724" type="curve" smooth="yes"/>
      <point x="194" y="724"/>
      <point x="130" y="695"/>
      <point x="70" y="654" type="curve"/>
      <point x="84" y="633" type="line"/>
      <point x="138" y="669"/>
      <point x="197" y="699"/>
      <point x="278" y="699" type="curve" smooth="yes"/>
      <point x="389" y="699"/>
      <point x="443" y="642"/>
      <point x="443" y="557" type="curve" smooth="yes"/>
      <point x="443" y="468"/>
      <point x="385" y="415"/>
      <point x="287" y="340" type="curve" smooth="yes"/>
      <point x="54" y="161" type="line"/>
    </contour>
    <contour>
      <point x="412" y="0" type="line"/>
      <point x="438" y="0" type="line"/>
      <point x="438" y="312" type="line"/>
      <point x="412" y="312" type="line"/>
    </contour>
  </outline>
</glyph>
<glyph name="uniA764" format="2">
  <advance width="600"/>
  <unicode hex="A764"/>
  <outline>
    <contour>
      <point x="115" y="0" type="line"/>
      <point x="141" y="0" type="line"/>
      <point x="141" y="150" type="line"/>
      <point x="278" y="150" type="line" smooth="yes"/>
      <point x="440" y="150"/>
      <point x="540" y="212"/>
      <point x="540" y="359" type="curve" smooth="yes"/>
      <point x="540" y="499"/>
      <point x="460" y="559"/>
      <point x="303" y="559" type="curve" smooth="yes"/>
      <point x="141" y="559" type="line"/>
      <point x="141" y="625" type="line"/>
      <point x="248" y="625" type="line"/>
      <point x="248" y="650" type="line"/>
      <point x="141" y="650" type="line"/>
      <point x="141" y="714" type="line"/>
      <point x="115" y="714" type="line"/>
      <point x="115" y="650" type="line"/>
      <point x="14" y="650" type="line"/>
      <point x="14" y="625" type="line"/>
      <point x="115" y="625" type="line"/>
    </contour>
    <contour>
      <point x="141" y="175" type="line"/>
      <point x="141" y="534" type="line"/>
      <point x="296" y="534" type="line" smooth="yes"/>
      <point x="446" y="534"/>
      <point x="513" y="483"/>
      <point x="513" y="359" type="curve" smooth="yes"/>
      <point x="513" y="220"/>
      <point x="418" y="175"/>
      <point x="274" y="175" type="curve" smooth="yes"/>
    </contour>
  </outline>
</glyph>
<glyph name="uniA768" format="2">
  <advance width="600"/>
  <unicode hex="A768"/>
  <outline>
    <contour>
      <point x="60" y="-240" type="line"/>
      <point x="268" y="-240" type="line"/>
      <point x="268" y="-221" type="line"/>
      <point x="177" y="-217" type="line"/>
      <point x="177" y="-5" type="line"/>
      <point x="560" y="714" type="line"/>
      <point x="532" y="714" type="line"/>
      <point x="231" y="147" type="line" smooth="yes"/>
      <point x="212" y="112"/>
      <point x="185" y="61"/>
      <point x="177" y="38" type="curve"/>
      <point x="174" y="38" type="line"/>
      <point x="176" y="62"/>
      <point x="177" y="111"/>
      <point x="177" y="148" type="curve" smooth="yes"/>
      <point x="177" y="690" type="line"/>
      <point x="268" y="695" type="line"/>
      <point x="268" y="714" type="line"/>
      <point x="60" y="714" type="line"/>
      <point x="60" y="695" type="line"/>
      <point x="151" y="690" type="line"/>
      <point x="151" y="-217" type="line"/>
      <point x="60" y="-221" type="line"/>
    </contour>
  </outline>
</glyph>
<glyph name="uniA769" format="2">
  <advance width="600"/>
  <unicode hex="A769"/>
  <outline>
    <contour>
      <point x="152" y="-240" type="line"/>
      <point x="176" y="-240" type="line"/>
      <point x="176" y="-5" type="line"/>
      <point x="550" y="527" type="line"/>
      <point x="519" y="527" type="line"/>
      <point x="221" y="103" type="line" smooth="yes"/>
      <point x="199" y="72"/>
      <point x="188" y="57"/>
      <point x="176" y="33" type="curve"/>
      <point x="174" y="33" type="line"/>
      <point x="175" y="65"/>
      <point x="176" y="87"/>
      <point x="176" y="130" type="curve" smooth="yes"/>
      <point x="176" y="528" type="line"/>
      <point x="152" y="528" type="line"/>
    </contour>
    <contour>
      <point x="60" y="-240" type="line"/>
      <point x="268" y="-240" type="line"/>
      <point x="268" y="-221" type="line"/>
      <point x="176" y="-216" type="line"/>
      <point x="152" y="-216" type="line"/>
      <point x="60" y="-221" type="line"/>
    </contour>
    <contour>
      <point x="152" y="504" type="line"/>
      <point x="176" y="504" type="line"/>
      <point x="268" y="509" type="line"/>
      <point x="268" y="528" type="line"/>
      <point x="60" y="528" type="line"/>
      <point x="60" y="509" type="line"/>
    </contour>
  </outline>
</glyph>
<glyph name="uniA772" format="2">
  <advance width="600"/>
  <unicode hex="A772"/>
  <anchor x="334" y="0" name="bottom"/>
  <anchor x="334" y="379" name="center"/>
  <anchor x="320" y="760" name="top"/>
  <anchor x="506" y="760" name="topright"/>
  <outline>
    <contour>
      <point x="50" y="-157" type="line"/>
      <point x="78" y="-157" type="line"/>
      <point x="259" y="185" type="line"/>
      <point x="231" y="185" type="line"/>
    </contour>
    <contour>
      <point x="50" y="0" type="line"/>
      <point x="333" y="0" type="line"/>
      <point x="333" y="25" type="line"/>
      <point x="50" y="25" type="line"/>
    </contour>
    <component base="l" xOffset="20"/>
  </outline>
</glyph>
<glyph name="uniA77C" format="2">
  <advance width="600"/>
  <unicode hex="A77C"/>
  <outline>
    <contour>
      <point x="108" y="0" type="line"/>
      <point x="505" y="0" type="line"/>
      <point x="505" y="23" type="line"/>
      <point x="108" y="23" type="line"/>
    </contour>
    <component base="uniA785"/>
  </outline>
</glyph>
<glyph name="uniA790" format="2">
  <advance width="600"/>
  <unicode hex="A790"/>
  <anchor x="300" y="0" name="bottom"/>
  <anchor x="305" y="714" name="top"/>
  <anchor x="600" y="714" name="topright"/>
  <outline>
    <contour>
      <point x="480" y="-193" type="line"/>
      <point x="505" y="-193" type="line"/>
      <point x="505" y="38" type="line"/>
      <point x="475" y="38" type="line"/>
      <point x="480" y="9" type="line"/>
    </contour>
    <component base="N"/>
  </outline>
</glyph>
<glyph name="uniA791" format="2">
  <advance width="600"/>
  <unicode hex="A791"/>
  <anchor x="309" y="0" name="bottom"/>
  <anchor x="308" y="528" name="top"/>
  <anchor x="580" y="528" name="topright"/>
  <outline>
    <contour>
      <point x="530" y="-176" type="line"/>
      <point x="556" y="-176" type="line"/>
      <point x="556" y="25" type="line"/>
      <point x="481" y="25" type="line"/>
      <point x="481" y="0" type="line"/>
      <point x="530" y="0" type="line"/>
    </contour>
    <component base="n"/>
  </outline>
</glyph>
<glyph name="uniA793" format="2">
  <advance width="600"/>
  <unicode hex="A793"/>
  <anchor x="381" y="0" name="bottom"/>
  <anchor x="376" y="528" name="top"/>
  <anchor x="626" y="528" name="topright"/>
  <outline>
    <contour>
      <point x="54" y="255" type="line"/>
      <point x="408" y="255" type="line"/>
      <point x="408" y="280" type="line"/>
      <point x="54" y="280" type="line"/>
    </contour>
    <component base="c" xOffset="46"/>
  </outline>
</glyph>
<glyph name="uniA794" format="2">
  <advance width="600"/>
  <unicode hex="A794"/>
  <anchor x="335" y="0" name="bottom"/>
  <anchor x="330" y="528" name="top"/>
  <anchor x="580" y="528" name="topright"/>
  <outline>
    <contour>
      <point x="422" y="-169" type="curve" smooth="yes"/>
      <point x="471" y="-169"/>
      <point x="496" y="-139"/>
      <point x="496" y="-84" type="curve" smooth="yes"/>
      <point x="496" y="39" type="line"/>
      <point x="470" y="19" type="line"/>
      <point x="470" y="-81" type="line" smooth="yes"/>
      <point x="470" y="-125"/>
      <point x="456" y="-144"/>
      <point x="422" y="-144" type="curve" smooth="yes"/>
      <point x="407" y="-144"/>
      <point x="394" y="-140"/>
      <point x="383" y="-135" type="curve"/>
      <point x="383" y="-160" type="line"/>
      <point x="392" y="-165"/>
      <point x="405" y="-169"/>
    </contour>
    <component base="c"/>
  </outline>
</glyph>
<glyph name="uniA799" format="2">
  <advance width="600"/>
  <unicode hex="A799"/>
  <anchor x="300" y="0" name="bottom"/>
  <anchor x="420" y="765" name="top"/>
  <anchor x="620" y="765" name="topright"/>
  <outline>
    <contour>
      <point x="166" y="312" type="line"/>
      <point x="409" y="312" type="line"/>
      <point x="409" y="337" type="line"/>
      <point x="166" y="337" type="line"/>
    </contour>
    <component base="f"/>
  </outline>
</glyph>
<glyph name="uniA7A1" format="2">
  <advance width="600"/>
  <unicode hex="A7A1"/>
  <anchor x="300" y="-247" name="bottom"/>
  <anchor x="300" y="528" name="top"/>
  <anchor x="580" y="528" name="topright"/>
  <outline>
    <contour>
      <point x="0" y="185" type="line"/>
      <point x="600" y="329" type="line"/>
      <point x="600" y="353" type="line"/>
      <point x="0" y="209" type="line"/>
    </contour>
    <component base="g"/>
  </outline>
</glyph>
<glyph name="uniA7A2" format="2">
  <advance width="600"/>
  <unicode hex="A7A2"/>
  <anchor x="320" y="0" name="bottom"/>
  <anchor x="300" y="714" name="top"/>
  <anchor x="580" y="714" name="topright"/>
  <outline>
    <contour>
      <point x="240" y="404" type="line"/>
      <point x="600" y="477" type="line"/>
      <point x="600" y="501" type="line"/>
      <point x="241" y="428" type="line"/>
    </contour>
    <contour>
      <point x="0" y="356" type="line"/>
      <point x="120" y="381" type="line"/>
      <point x="121" y="405" type="line"/>
      <point x="0" y="380" type="line"/>
    </contour>
    <component base="K"/>
  </outline>
</glyph>
<glyph name="uniA7AE" format="2">
  <advance width="600"/>
  <unicode hex="A7AE"/>
  <anchor x="300" y="0" name="bottom"/>
  <anchor x="300" y="714" name="top"/>
  <outline>
    <contour>
      <point x="530" y="714" type="line"/>
      <point x="70" y="714" type="line"/>
      <point x="70" y="694" type="line"/>
      <point x="287" y="690" type="line"/>
      <point x="287" y="24" type="line"/>
      <point x="70" y="20" type="line"/>
      <point x="70" y="0" type="line"/>
      <point x="530" y="0" type="line"/>
      <point x="530" y="20" type="line"/>
      <point x="313" y="24" type="line"/>
      <point x="313" y="690" type="line"/>
      <point x="530" y="694" type="line"/>
    </contour>
  </outline>
</glyph>
<glyph name="uniA7B8" format="2">
  <advance width="600"/>
  <unicode hex="A7B8"/>
  <anchor x="300" y="0" name="bottom"/>
  <anchor x="540" y="10" name="ogonek"/>
  <anchor x="300" y="714" name="top"/>
  <anchor x="580" y="714" name="topright"/>
  <outline>
    <contour>
      <point x="65" y="-26" type="line"/>
      <point x="589" y="725" type="line"/>
      <point x="569" y="740" type="line"/>
      <point x="45" y="-11" type="line"/>
    </contour>
    <component base="U"/>
  </outline>
</glyph>
<glyph name="uniA7C9" format="2">
  <advance width="600"/>
  <unicode hex="A7C9"/>
  <anchor x="300" y="0" name="bottom"/>
  <anchor x="321" y="714" name="top"/>
  <anchor x="580" y="714" name="topright"/>
  <outline>
    <contour>
      <point x="85" y="355" type="line"/>
      <point x="507" y="355" type="line"/>
      <point x="507" y="380" type="line"/>
      <point x="85" y="380" type="line"/>
    </contour>
    <component base="S"/>
  </outline>
</glyph>
<glyph name="uniA7CA" format="2">
  <advance width="600"/>
  <unicode hex="A7CA"/>
  <anchor x="300" y="0" name="bottom"/>
  <anchor x="300" y="528" name="top"/>
  <anchor x="580" y="528" name="topright"/>
  <outline>
    <contour>
      <point x="94" y="263" type="line"/>
      <point x="523" y="263" type="line"/>
      <point x="523" y="288" type="line"/>
      <point x="94" y="288" type="line"/>
    </contour>
    <component base="s"/>
  </outline>
</glyph>
<glyph name="uniA7F7" format="2">
  <advance width="600"/>
  <unicode hex="A7F7"/>
  <outline>
    <contour>
      <point x="20" y="77" type="line"/>
      <point x="40" y="77" type="line"/>
      <point x="43" y="204" type="line"/>
      <point x="556" y="204" type="line"/>
      <point x="560" y="77" type="line"/>
      <point x="580" y="77" type="line"/>
      <point x="580" y="357" type="line"/>
      <point x="560" y="357" type="line"/>
      <point x="556" y="230" type="line"/>
      <point x="43" y="230" type="line"/>
      <point x="40" y="357" type="line"/>
      <point x="20" y="357" type="line"/>
    </contour>
  </outline>
</glyph>
<glyph name="uniAB30" format="2">
  <advance width="600"/>
  <unicode hex="AB30"/>
  <anchor x="300" y="0" name="bottom"/>
  <anchor x="300" y="528" name="top"/>
  <outline>
    <contour>
      <point x="0" y="260" type="line"/>
      <point x="580" y="260" type="line"/>
      <point x="580" y="285" type="line"/>
      <point x="0" y="285" type="line"/>
    </contour>
    <component base="uni0251"/>
  </outline>
</glyph>
<glyph name="uniAB4F" format="2">
  <advance width="600"/>
  <unicode hex="AB4F"/>
  <outline>
    <contour>
      <point x="20" y="225" type="line"/>
      <point x="580" y="225" type="line"/>
      <point x="580" y="250" type="line"/>
      <point x="20" y="250" type="line"/>
    </contour>
    <component base="uniAB4E"/>
  </outline>
</glyph>
<glyph name="uniAB60" format="2">
  <advance width="600"/>
  <unicode hex="AB60"/>
  <outline>
    <contour>
      <point x="90" y="0" type="line"/>
      <point x="116" y="0" type="line"/>
      <point x="116" y="528" type="line"/>
      <point x="90" y="528" type="line"/>
    </contour>
    <contour>
      <point x="247" y="0" type="line"/>
      <point x="384" y="0" type="line" smooth="yes"/>
      <point x="505" y="0"/>
      <point x="565" y="56"/>
      <point x="565" y="156" type="curve" smooth="yes"/>
      <point x="565" y="244"/>
      <point x="514" y="302"/>
      <point x="398" y="302" type="curve" smooth="yes"/>
      <point x="273" y="302" type="line"/>
      <point x="273" y="528" type="line"/>
      <point x="247" y="528" type="line"/>
    </contour>
    <contour>
      <point x="273" y="25" type="line"/>
      <point x="273" y="277" type="line"/>
      <point x="394" y="277" type="line" smooth="yes"/>
      <point x="492" y="277"/>
      <point x="538" y="233"/>
      <point x="538" y="157" type="curve" smooth="yes"/>
      <point x="538" y="72"/>
      <point x="496" y="25"/>
      <point x="380" y="25" type="curve" smooth="yes"/>
    </contour>
  </outline>
</glyph>
<glyph name="uniAB6B" format="2">
  <advance width="600"/>
  <unicode hex="AB6B"/>
  <outline>
    <contour>
      <point x="238" y="198" type="line"/>
      <point x="269" y="198" type="line"/>
      <point x="269" y="257" type="line"/>
      <point x="382" y="257" type="line"/>
      <point x="382" y="291" type="line"/>
      <point x="269" y="291" type="line"/>
      <point x="269" y="350" type="line"/>
      <point x="238" y="350" type="line"/>
    </contour>
  </outline>
</glyph>
<glyph name="f_f_i" format="2">
  <advance width="1200"/>
  <unicode hex="FB03"/>
  <anchor x="986" y="0" name="bottom _3"/>
  <anchor x="223" y="0" name="bottom_1"/>
  <anchor x="602" y="0" name="bottom_2"/>
  <anchor x="400" y="0" name="caret_1"/>
  <anchor x="800" y="0" name="caret_2"/>
  <anchor x="223" y="765" name="top_1"/>
  <anchor x="601" y="765" name="top_2"/>
  <anchor x="986" y="765" name="top_3"/>
  <outline>
    <contour>
      <point x="213" y="0" type="line"/>
      <point x="239" y="0" type="line"/>
      <point x="239" y="503" type="line"/>
      <point x="590" y="503" type="line"/>
      <point x="590" y="0" type="line"/>
      <point x="616" y="0" type="line"/>
      <point x="616" y="503" type="line"/>
      <point x="973" y="503" type="line"/>
      <point x="973" y="0" type="line"/>
      <point x="999" y="0" type="line"/>
      <point x="999" y="528" type="line"/>
      <point x="616" y="528" type="line"/>
      <point x="616" y="592" type="line" smooth="yes"/>
      <point x="616" y="703"/>
      <point x="663" y="740"/>
      <point x="762" y="740" type="curve" smooth="yes"/>
      <point x="801" y="740"/>
      <point x="845" y="735"/>
      <point x="873" y="728" type="curve"/>
      <point x="877" y="752" type="line"/>
      <point x="852" y="759"/>
      <point x="797" y="765"/>
      <point x="762" y="765" type="curve" smooth="yes"/>
      <point x="642" y="765"/>
      <point x="590" y="707"/>
      <point x="590" y="603" type="curve" smooth="yes"/>
      <point x="590" y="528" type="line"/>
      <point x="239" y="528" type="line"/>
      <point x="239" y="592" type="line" smooth="yes"/>
      <point x="239" y="703"/>
      <point x="286" y="740"/>
      <point x="385" y="740" type="curve" smooth="yes"/>
      <point x="424" y="740"/>
      <point x="468" y="735"/>
      <point x="496" y="728" type="curve"/>
      <point x="500" y="752" type="line"/>
      <point x="475" y="759"/>
      <point x="420" y="765"/>
      <point x="385" y="765" type="curve" smooth="yes"/>
      <point x="265" y="765"/>
      <point x="213" y="707"/>
      <point x="213" y="603" type="curve" smooth="yes"/>
      <point x="213" y="528" type="line"/>
      <point x="54" y="524" type="line"/>
      <point x="54" y="503" type="line"/>
      <point x="213" y="503" type="line"/>
    </contour>
    <contour>
      <point x="983" y="660" type="curve" smooth="yes"/>
      <point x="1009" y="660"/>
      <point x="1013" y="679"/>
      <point x="1013" y="697" type="curve" smooth="yes"/>
      <point x="1013" y="716"/>
      <point x="1007" y="734"/>
      <point x="983" y="734" type="curve" smooth="yes"/>
      <point x="957" y="734"/>
      <point x="951" y="716"/>
      <point x="951" y="697" type="curve" smooth="yes"/>
      <point x="951" y="677"/>
      <point x="958" y="660"/>
    </contour>
  </outline>
</glyph>
<glyph name="f_f_l" format="2">
  <advance width="1200"/>
  <unicode hex="FB04"/>
  <anchor x="986" y="0" name="bottom _3"/>
  <anchor x="230" y="0" name="bottom_1"/>
  <anchor x="608" y="0" name="bottom_2"/>
  <anchor x="420" y="0" name="caret_1"/>
  <anchor x="800" y="0" name="caret_2"/>
  <anchor x="230" y="765" name="top_1"/>
  <anchor x="607" y="765" name="top_2"/>
  <anchor x="986" y="765" name="top_3"/>
  <outline>
    <contour>
      <point x="220" y="0" type="line"/>
      <point x="246" y="0" type="line"/>
      <point x="246" y="503" type="line"/>
      <point x="597" y="503" type="line"/>
      <point x="597" y="0" type="line"/>
      <point x="623" y="0" type="line"/>
      <point x="623" y="503" type="line"/>
      <point x="877" y="503" type="line"/>
      <point x="877" y="528" type="line"/>
      <point x="623" y="528" type="line"/>
      <point x="623" y="592" type="line" smooth="yes"/>
      <point x="623" y="703"/>
      <point x="670" y="740"/>
      <point x="769" y="740" type="curve" smooth="yes"/>
      <point x="808" y="740"/>
      <point x="852" y="735"/>
      <point x="880" y="728" type="curve"/>
      <point x="884" y="752" type="line"/>
      <point x="859" y="759"/>
      <point x="804" y="765"/>
      <point x="769" y="765" type="curve" smooth="yes"/>
      <point x="649" y="765"/>
      <point x="597" y="707"/>
      <point x="597" y="603" type="curve" smooth="yes"/>
      <point x="597" y="528" type="line"/>
      <point x="246" y="528" type="line"/>
      <point x="246" y="592" type="line" smooth="yes"/>
      <point x="246" y="703"/>
      <point x="293" y="740"/>
      <point x="392" y="740" type="curve" smooth="yes"/>
      <point x="431" y="740"/>
      <point x="475" y="735"/>
      <point x="503" y="728" type="curve"/>
      <point x="507" y="752" type="line"/>
      <point x="482" y="759"/>
      <point x="427" y="765"/>
      <point x="392" y="765" type="curve" smooth="yes"/>
      <point x="272" y="765"/>
      <point x="220" y="707"/>
      <point x="220" y="603" type="curve" smooth="yes"/>
      <point x="220" y="528" type="line"/>
      <point x="61" y="524" type="line"/>
      <point x="61" y="503" type="line"/>
      <point x="220" y="503" type="line"/>
    </contour>
    <contour>
      <point x="975" y="0" type="line"/>
      <point x="1001" y="0" type="line"/>
      <point x="1001" y="760" type="line"/>
      <point x="975" y="760" type="line"/>
    </contour>
  </outline>
</glyph>
<glyph name="longs_t" format="2">
  <advance width="600"/>
  <unicode hex="FB05"/>
  <anchor x="144" y="0" name="bottom"/>
  <anchor x="117" y="0" name="bottom_1"/>
  <anchor x="365" y="0" name="bottom_2"/>
  <anchor x="250" y="0" name="caret_1"/>
  <anchor x="368" y="264" name="center"/>
  <anchor x="244" y="765" name="top"/>
  <anchor x="117" y="765" name="top_1"/>
  <anchor x="365" y="765" name="top_2"/>
  <anchor x="599" y="659" name="topright"/>
  <outline>
    <contour>
      <point x="474" y="-10" type="curve" smooth="yes"/>
      <point x="505" y="-10"/>
      <point x="530" y="-4"/>
      <point x="550" y="3" type="curve"/>
      <point x="550" y="28" type="line"/>
      <point x="529" y="20"/>
      <point x="500" y="15"/>
      <point x="474" y="15" type="curve" smooth="yes"/>
      <point x="398" y="15"/>
      <point x="382" y="58"/>
      <point x="382" y="143" type="curve" smooth="yes"/>
      <point x="382" y="503" type="line"/>
      <point x="558" y="503" type="line"/>
      <point x="558" y="528" type="line"/>
      <point x="382" y="528" type="line"/>
      <point x="382" y="653" type="line"/>
      <point x="374" y="711"/>
      <point x="330" y="765"/>
      <point x="245" y="765" type="curve" smooth="yes"/>
      <point x="146" y="765"/>
      <point x="105" y="692"/>
      <point x="105" y="585" type="curve" smooth="yes"/>
      <point x="105" y="0" type="line"/>
      <point x="131" y="0" type="line"/>
      <point x="131" y="582" type="line" smooth="yes"/>
      <point x="131" y="681"/>
      <point x="161" y="740"/>
      <point x="245" y="740" type="curve" smooth="yes"/>
      <point x="314" y="740"/>
      <point x="347" y="701"/>
      <point x="355" y="653" type="curve"/>
      <point x="355" y="528" type="line"/>
      <point x="236" y="524" type="line"/>
      <point x="236" y="503" type="line"/>
      <point x="356" y="503" type="line"/>
      <point x="356" y="140" type="line" smooth="yes"/>
      <point x="356" y="43"/>
      <point x="381" y="-10"/>
    </contour>
  </outline>
</glyph>
<glyph name="eth.sc" format="2">
  <advance width="600"/>
  <anchor x="300" y="0" name="bottom"/>
  <anchor x="300" y="559" name="top"/>
  <anchor x="300" y="280" name="center"/>
  <anchor x="580" y="559" name="topright"/>
  <outline>
    <contour>
      <point x="0" y="271" type="line"/>
      <point x="242" y="271" type="line"/>
      <point x="242" y="296" type="line"/>
      <point x="0" y="296" type="line"/>
    </contour>
    <component base="d.sc"/>
  </outline>
</glyph>
<glyph name="lslash.sc" format="2">
  <advance width="600"/>
  <anchor x="372" y="0" name="bottom"/>
  <anchor x="222" y="559" name="top"/>
  <anchor x="224" y="280" name="center"/>
  <anchor x="464" y="559" name="topright"/>
  <outline>
    <contour>
      <point x="114" y="198" type="line"/>
      <point x="355" y="366" type="line"/>
      <point x="342" y="386" type="line"/>
      <point x="101" y="218" type="line"/>
    </contour>
    <component base="l.sc" xOffset="30"/>
  </outline>
</glyph>
<glyph name="t.sc" format="2">
  <advance width="600"/>
  <anchor x="300" y="0" name="bottom"/>
  <anchor x="300" y="280" name="center"/>
  <anchor x="300" y="559" name="top"/>
  <anchor x="580" y="559" name="topright"/>
  <outline>
    <contour>
      <point x="287" y="0" type="line"/>
      <point x="313" y="0" type="line"/>
      <point x="313" y="534" type="line"/>
      <point x="503" y="534" type="line"/>
      <point x="503" y="559" type="line"/>
      <point x="97" y="559" type="line"/>
      <point x="97" y="534" type="line"/>
      <point x="287" y="534" type="line"/>
    </contour>
  </outline>
</glyph>
<glyph name="uni02E5_uni02E9_uni02E8" format="2">
  <advance width="600"/>
  <outline>
    <contour>
      <point x="254" y="0" type="line"/>
      <point x="414" y="152" type="line"/>
      <point x="414" y="0" type="line"/>
      <point x="480" y="0" type="line"/>
      <point x="480" y="688" type="line"/>
      <point x="414" y="688" type="line"/>
      <point x="414" y="245" type="line"/>
      <point x="286" y="123" type="line"/>
      <point x="104" y="687" type="line"/>
      <point x="42" y="666" type="line"/>
    </contour>
  </outline>
</glyph>
<glyph name="uogonek.loclNAV" format="2">
  <advance width="600"/>
  <anchor x="300" y="528" name="top"/>
  <anchor x="300" y="0" name="bottom"/>
  <anchor x="540" y="10" name="ogonek"/>
  <anchor x="580" y="528" name="topright"/>
  <outline>
    <contour>
      <point x="322" y="-217" type="curve" smooth="yes"/>
      <point x="343" y="-217"/>
      <point x="361" y="-213"/>
      <point x="372" y="-209" type="curve"/>
      <point x="372" y="-185" type="line"/>
      <point x="361" y="-189"/>
      <point x="343" y="-192"/>
      <point x="324" y="-192" type="curve" smooth="yes"/>
      <point x="285" y="-192"/>
      <point x="266" y="-170"/>
      <point x="266" y="-131" type="curve" smooth="yes"/>
      <point x="266" y="-81"/>
      <point x="315" y="-31"/>
      <point x="396" y="21" type="curve"/>
      <point x="378" y="32" type="line"/>
      <point x="272" y="-35"/>
      <point x="240" y="-88"/>
      <point x="240" y="-135" type="curve" smooth="yes"/>
      <point x="240" y="-190"/>
      <point x="276" y="-217"/>
    </contour>
    <component base="u"/>
  </outline>
</glyph>
